<?xml version="1.0" encoding="UTF-8" standalone="no"?>
<!-- Created with Inkscape (http://www.inkscape.org/) -->

<svg
   xmlns:dc="http://purl.org/dc/elements/1.1/"
   xmlns:cc="http://creativecommons.org/ns#"
   xmlns:rdf="http://www.w3.org/1999/02/22-rdf-syntax-ns#"
   xmlns:svg="http://www.w3.org/2000/svg"
   xmlns="http://www.w3.org/2000/svg"
   xmlns:sodipodi="http://sodipodi.sourceforge.net/DTD/sodipodi-0.dtd"
   xmlns:inkscape="http://www.inkscape.org/namespaces/inkscape"
   width="800px"
   height="600px"
   id="svg3898"
   version="1.1"
   inkscape:version="0.48.1 "
   inkscape:export-filename="C:\Users\francisco\Documents\NetBeansProjects\ProjectoJogoArpao\imagens\entradapng.png"
   inkscape:export-xdpi="90"
   inkscape:export-ydpi="90"
   sodipodi:docname="New document 7">
  <defs
     id="defs3900" />
  <sodipodi:namedview
     id="base"
     pagecolor="#ffffff"
     bordercolor="#666666"
     borderopacity="1.0"
     inkscape:pageopacity="0.0"
     inkscape:pageshadow="2"
     inkscape:zoom="0.5"
     inkscape:cx="312.17397"
     inkscape:cy="355.45427"
     inkscape:current-layer="layer1"
     inkscape:document-units="px"
     showgrid="false"
     inkscape:window-width="1366"
     inkscape:window-height="706"
     inkscape:window-x="-8"
     inkscape:window-y="-8"
     inkscape:window-maximized="1" />
  <metadata
     id="metadata3903">
    <rdf:RDF>
      <cc:Work
         rdf:about="">
        <dc:format>image/svg+xml</dc:format>
        <dc:type
           rdf:resource="http://purl.org/dc/dcmitype/StillImage" />
        <dc:title></dc:title>
      </cc:Work>
    </rdf:RDF>
  </metadata>
  <g
     id="layer1"
     inkscape:label="Layer 1"
     inkscape:groupmode="layer">
    <g
       id="g2987"
       transform="matrix(2.5150592,0,0,2.5150592,97.482571,-4.7767776)">
      <path
         style="fill:#f9eeca"
         d="M 0,120 0.28664302,2.1498226 279.85668,2.0065011 280,120 l 0,120 -140,0 -140,0 z"
         id="path3003"
         inkscape:connector-curvature="0"
         sodipodi:nodetypes="cccccccc" />
      <path
         style="fill:#f3e4b1"
         d="M 0,119.97878 0.14332151,2.1073863 c 0,0 185.69093849,-0.2904358 279.12478849,0.1792567 L 280,240 213.75,239.9847 C 170.60814,239.9747 148.0232,239.63125 149,239 c 0.99731,-0.64451 1.08166,-0.97451 0.25168,-0.98469 -0.68657,-0.008 3.36343,-2.40713 9,-5.33046 45.17189,-23.42778 76.25726,-52.83773 78.46583,-74.23671 C 237.18369,153.93125 237.60899,153 239.20564,153 243.00788,153 245,151.09698 245,147.46482 245,145.55917 244.64702,144 244.21561,144 c -0.43142,0 -1.60488,-1.38896 -2.60769,-3.08658 -2.45954,-4.16368 -1.56525,-7.9637 3.43171,-14.58213 7.39986,-9.80105 5.55645,-11.04111 -2.85228,-1.91872 L 238,128.95531 l -0.0354,10.27235 c -0.0233,6.77165 -0.5028,11.1166 -1.40686,12.74971 l -1.37144,2.47737 -3.59313,-3.92279 C 229.61691,148.37442 228,145.86685 228,144.95957 c 0,-0.90728 -0.9,-2.46408 -2,-3.45957 -1.1,-0.99549 -2,-2.20945 -2,-2.69769 0,-0.48824 -1.87953,-3.43193 -4.17673,-6.54154 l -4.17672,-5.65382 -1.8362,3.94652 c -1.00991,2.17059 -2.95538,5.47558 -4.32328,7.34441 -2.94979,4.03006 -3.06702,4.95318 -0.73707,5.80372 0.9625,0.35136 2.85552,1.48767 4.20672,2.52514 1.54626,1.18724 3.30661,1.673 4.75,1.31073 1.3209,-0.33152 2.29328,-0.12185 2.29328,0.4945 0,0.58855 1.53709,1.71232 3.41576,2.49728 2.4782,1.03546 3.59724,2.25347 4.07694,4.43751 0.36364,1.65567 1.12263,3.2955 1.68663,3.64407 0.564,0.34857 -2.05812,2.08436 -5.82694,3.85731 -3.76881,1.77295 -7.45089,3.9449 -8.18238,4.82655 -0.7315,0.88165 -2.869,2.11092 -4.75,2.73171 C 208.539,170.64719 207,171.52243 207,171.97139 c 0,0.44896 -4.1625,1.14444 -9.25,1.54552 -5.0875,0.40108 -10.375,1.17178 -11.75,1.71266 -1.375,0.54089 -5.30242,0.92058 -8.7276,0.84376 -3.42517,-0.0768 -9.05017,0.33085 -12.5,0.90595 -10.05397,1.67601 -27.95051,3.01963 -46.56944,3.49629 -15.26138,0.3907 -17.37,0.2527 -17.91695,-1.17262 -0.620536,-1.61709 2.46292,-4.98844 7.66908,-8.38512 l 2.42503,-1.58217 -3.90182,-4.66783 C 104.33229,162.10052 101.84151,160 100.94323,160 99.368904,160 96,157.04988 96,155.67126 96,155.30207 96.640474,155 97.423275,155 c 2.318431,0 7.537745,-4.938 6.920225,-6.54723 -0.39792,-1.03696 0.17446,-1.45277 1.99982,-1.45277 1.40652,0 2.93828,-0.68077 3.40391,-1.51282 0.46564,-0.83205 2.24456,-2.51955 3.95315,-3.75 1.7086,-1.23045 5.73748,-4.276 8.95308,-6.76789 11.71855,-9.08117 33.62077,-20.17442 66.63313,-33.749 2.48156,-1.02041 3.36276,-1.818969 2.55685,-2.317049 -0.95398,-0.589593 -0.96699,-1.336659 -0.058,-3.331628 C 192.76039,93.431791 192.70532,93 191.45748,93 c -0.82481,0 -4.79253,-0.968783 -8.81717,-2.152852 l -7.31753,-2.152852 -7.19257,4.652852 C 164.17429,95.906217 160.65329,98 160.30576,98 c -1.47162,0 -20.12323,11.62786 -23.60804,14.71781 -2.09125,1.85429 -4.90375,3.79022 -6.25,4.30207 -1.34624,0.51184 -2.44772,1.70676 -2.44772,2.65537 0,1.34147 -0.26667,1.45808 -1.2,0.52475 -1.9158,-1.9158 -3.53831,-1.45223 -9.8,2.8 -3.23964,2.2 -6.52021,4 -7.29014,4 C 108.28007,127 105,123.93826 105,122.60364 c 0,-0.40638 3.6,-4.30516 8,-8.66396 4.4,-4.3588 8,-8.60337 8,-9.43239 0,-1.51976 1.34762,-3.36011 6.08368,-8.30803 C 129.40785,93.771125 132,89.819437 132,88.704413 c 0,-0.234888 -1.07225,-0.222095 -2.38278,0.02843 -1.31053,0.250523 -2.68709,-0.03688 -3.05902,-0.638672 C 126.13569,87.410528 121.80375,87 115.01241,87 c -13.41214,0 -14.21234,0.524071 -13.43778,8.800788 0.29334,3.134567 0.16076,7.724212 -0.29462,10.199212 -0.67779,3.68372 -1.25936,4.56158 -3.2061,4.83948 l -2.378122,0.33949 0.697228,-11.662146 0.697227,-11.662144 -8.295121,0.78962 C 84.232805,89.07859 79.2625,89.400871 77.75,89.360479 c -3.519015,-0.09398 -3.465202,0.796459 0.260156,4.304755 1.655585,1.559121 4.687067,5.698888 6.736626,9.199486 2.049559,3.50059 4.732421,6.74717 5.961915,7.21463 1.29974,0.49416 2.481634,2.0158 2.823605,3.63528 0.323488,1.53195 0.753222,3.60842 0.954966,4.61436 0.243622,1.21476 -0.08859,1.65424 -0.989218,1.30864 -0.745812,-0.2862 -2.978861,-0.82481 -4.962331,-1.19691 -2.543065,-0.47708 -4.027241,-1.49054 -5.034028,-3.43745 -1.518184,-2.93584 -4.020628,-4.41862 -5.702716,-3.37903 -0.561297,0.3469 -2.055352,-0.66414 -3.320122,-2.24676 -3.260094,-4.07938 -3.76106,-2.66325 -0.990984,2.80132 1.295113,2.55488 2.085467,4.91453 1.756343,5.24365 -0.329124,0.32913 0.54684,1.83122 1.946586,3.33798 4.20948,4.53131 9.666448,13.8789 11.800571,20.21395 2.064302,6.12779 2.699971,15.48031 1.118588,16.45766 -1.310811,0.81013 -9.772736,-4.18787 -12.100445,-7.14708 C 76.78407,148.72707 76,146.22219 76,143.86514 76,139.4349 74.13746,137.1311 68.041491,134.02117 L 64,131.95935 l 0,3.71872 c 0,4.6639 4.238935,18.52211 7.286625,23.82193 l 2.300223,4 9.223318,-0.0148 c 6.040657,-0.01 9.084181,0.34776 8.820101,1.03595 -0.249855,0.65111 0.884814,0.90039 2.983258,0.65541 5.093469,-0.59463 4.471317,2.52537 -1.363525,6.83788 -5.834179,4.31203 -6.465318,6.98401 -2.343009,9.91935 1.964244,1.39867 3.245157,3.36033 3.668817,5.61863 0.358005,1.90833 1.061155,3.72323 1.562555,4.03311 0.5014,0.30989 4.104747,-0.16283 8.007437,-1.05048 3.90269,-0.88765 11.29362,-1.63959 16.42429,-1.67099 7.94293,-0.0486 10.15295,0.32036 14.8792,2.48412 3.9352,1.80159 5.55071,3.10212 5.55071,4.46847 0,1.78474 -1.12787,1.98488 -15.25,2.70608 -8.3875,0.42834 -17.05,0.67847 -19.25,0.55585 l -4,-0.22295 2.18504,2.22945 c 1.81189,1.84873 3.34656,2.24556 8.98661,2.32378 5.81948,0.0807 6.85384,0.36576 7.1636,1.97418 0.19911,1.03392 -0.10682,2.83321 -0.67986,3.99842 -2.31465,4.70663 -1.95714,10.87102 0.97299,16.77633 2.68536,5.41202 3.08015,5.74743 9.08946,7.72227 3.45519,1.13548 8.2908,2.37487 10.74581,2.7542 3.61932,0.55924 4.09221,0.85084 2.5,1.54159 -1.59942,0.69387 -1.45918,0.78336 0.75609,0.48248 1.49585,-0.20317 2.4818,0.0156 2.19098,0.48615 C 146.11991,239.61501 113.05852,240 72.940983,240 L 0,240 z m 134.33339,39.92534 c 4.49163,-1.15273 17.99856,-4.0106 30.0154,-6.35082 13.70282,-2.66856 22.17908,-4.77661 22.73468,-5.65412 C 189.29768,144.4021 187.21879,130 184.49979,130 c -0.77341,0 -2.28782,1.99305 -3.36536,4.429 -2.48261,5.61234 -6.68158,7.99486 -12.86241,7.29819 -2.54653,-0.28703 -5.34424,-1.38586 -6.64874,-2.61137 -1.2387,-1.1637 -2.9696,-2.11582 -3.84644,-2.11582 -2.38255,0 -24.76967,6.63935 -30.11939,8.93251 -4.19826,1.79958 -4.65636,2.32035 -4.64644,5.28195 0.0174,5.18648 1.16112,10.78554 2.20322,10.78554 0.5239,0 4.62752,-0.94314 9.11916,-2.09588 z m 130.5599,-30.39996 c -0.9366,-3.17208 -1.63013,-4.13753 -2.47093,-3.43973 -0.64287,0.53354 -1.9009,0.68917 -2.79561,0.34583 -2.69784,-1.03525 -1.82938,1.30927 1.31411,3.54763 1.61747,1.15174 3.26297,3.09488 3.65665,4.31809 1.34462,4.1778 1.62112,-0.28315 0.29578,-4.77182 z m -6.58131,-12.63663 c -1.48953,-1.48952 -2.71325,-1.87495 -4.32688,-1.3628 -2.08404,0.66145 -1.96364,0.84304 1.63246,2.46231 4.6354,2.08724 5.52013,1.72621 2.69442,-1.09951 z M 211,107.69113 c 0,-0.71988 -0.71174,-2.18238 -1.58164,-3.25 -1.44731,-1.77628 -1.53223,-1.78556 -1,-0.10934 0.3199,1.00748 0.58164,2.46998 0.58164,3.25 0,0.78001 0.45,1.41821 1,1.41821 0.55,0 1,-0.58899 1,-1.30887 z M 198,98 c 0.5887,-1.1 1.75609,-2 2.5942,-2 0.83811,0 1.24572,-0.45 0.9058,-1 -1.06609,-1.724968 -5.37489,-1.102285 -6.46482,0.934259 -0.56935,1.063842 -1.03518,2.413842 -1.03518,3 0,1.834441 2.87798,1.162251 4,-0.934259 z m 42,50 c 0,-0.55 0.45,-1 1,-1 0.55,0 1,0.45 1,1 0,0.55 -0.45,1 -1,1 -0.55,0 -1,-0.45 -1,-1 z M 96,147 c 0,-0.55 0.198442,-1 0.440983,-1 0.242541,0 0.719098,0.45 1.059017,1 0.339919,0.55 0.141476,1 -0.440983,1 C 96.476558,148 96,147.55 96,147 z m 25.5,-21 c -0.33992,-0.55 -0.14148,-1 0.44098,-1 0.58246,0 1.05902,0.45 1.05902,1 0,0.55 -0.19844,1 -0.44098,1 -0.24254,0 -0.7191,-0.45 -1.05902,-1 z M 88,101.83333 C 88,101.375 88.675,101 89.5,101 c 0.825,0 1.5,0.375 1.5,0.83333 0,0.45834 -0.675,0.83334 -1.5,0.83334 -0.825,0 -1.5,-0.375 -1.5,-0.83334 z m 28.66667,-0.5 C 115.51603,100.1827 115.93843,99 117.5,99 c 0.825,0 1.5,0.675 1.5,1.5 0,1.56157 -1.1827,1.98397 -2.33333,0.83333 z"
         id="path3001"
         inkscape:connector-curvature="0"
         sodipodi:nodetypes="ccccsscsssssssscsscssssscsssssssssssssssssssscssssssssssscsscssssssssssssssssssscccssssssssssssscsssssscssccssssscsssssscsssssssssssccssssssssssssssssssssssssssssssssssssssssssssssssssssssssss" />
      <path
         style="fill:#ece11a"
         d="M -17.05526,125.44296 0,2 l 140,0 140,0 0,119 0,119 -65.72251,0 c -54.9123,0 -65.39806,-0.21811 -63.75,-1.32601 1.08488,-0.72931 6.92251,-3.94689 12.97251,-7.15019 40.65429,-21.52525 67.25114,-46.12414 73.74846,-68.20845 1.79243,-6.09246 2.74637,-7.76707 5.33635,-9.36777 4.48484,-2.77178 5.36415,-8.34764 1.88853,-11.97541 -3.91936,-4.09092 -3.30485,-7.85958 2.60689,-15.98748 5.28326,-7.26382 6.14772,-7.74921 10.37272,-5.82417 3.15067,1.43554 3.31003,3.59202 0.29705,4.01993 -1.42723,0.2027 -2.36435,1.1232 -2.5627,2.51724 -0.24234,1.70323 0.60138,2.66402 3.75,4.27032 3.66828,1.87142 4.05929,2.43473 4.02757,5.80231 -0.0485,5.15268 -2.45277,15.90772 -3.96285,17.72724 -0.7795,0.93925 -2.98155,1.50384 -5.87446,1.50618 -4.6292,0.004 -11.12756,2.91291 -11.12756,4.98156 0,1.45633 1.47791,1.28058 9.42905,-1.12124 3.88902,-1.17476 7.6564,-2.29445 8.37196,-2.48818 3.43944,-0.93125 7.96211,-18.79164 6.83703,-27.00002 C 265.56288,122.53169 259.67948,114 255.34536,114 c -3.56978,0 -6.15634,1.56493 -12.1724,7.36458 -7.09039,6.83535 -8.17296,9.15689 -8.17296,17.52674 0,3.84486 -0.40595,7.24153 -0.9021,7.54818 -0.49616,0.30664 -1.83098,-1.01681 -2.96628,-2.94099 C 229.99633,141.57433 228.62841,140 228.0918,140 c -0.53661,0 -4.71429,-5.48034 -9.28373,-12.17853 -7.78333,-11.40933 -8.3276,-11.98126 -8.61731,-9.05523 -0.17008,1.71782 0.37269,4.16406 1.20616,5.4361 1.42649,2.1771 1.25244,2.75225 -2.96645,9.80256 -2.46502,4.11936 -4.35382,8.16596 -4.19734,8.99243 0.15649,0.82647 3.43849,3.30267 7.29335,5.50267 9.66098,5.5136 13.60786,8.47361 12.87655,9.6569 -0.34127,0.55218 -5.90445,3.60448 -12.36262,6.78288 -10.95502,5.39154 -12.37218,5.82637 -21.14127,6.48681 -5.16953,0.38934 -12.32414,1.12764 -15.89914,1.64067 -7.01882,1.00723 -36.27204,3.38377 -55.25,4.48853 -12.74616,0.742 -14.03628,0.19441 -8.75,-3.71391 3.71055,-2.74333 3.74019,-3.90206 0.20606,-8.05708 -1.53667,-1.80664 -3.57204,-4.5223 -4.52306,-6.0348 -0.95101,-1.5125 -2.39373,-2.75 -3.20605,-2.75 -3.1439,0 -1.12733,-2.78564 7.28274,-10.06021 11.16697,-9.65922 17.77325,-14.48632 27.74031,-20.26939 9.80163,-5.68708 39.29225,-19.46206 49.48853,-23.11594 l 7.48852,-2.68355 1.75547,2.16791 1.75546,2.1679 0.8914,-2.35336 0.89141,-2.35336 1.27512,2.75 c 1.27057,2.74018 2.95409,3.70386 2.95409,1.69098 0,-2.51754 1.8496,0.40464 2.90232,4.58539 1.32128,5.24726 2.21904,5.16598 4.04482,-0.36621 1.23924,-3.75491 1.15853,-4.14501 -1.71716,-8.30013 -5.24199,-7.574197 -6.86179,-8.531236 -19.11437,-11.293497 C 184.8542,88.15494 178.31181,87 176.57697,87 174.29959,87 165.09355,91.86466 143.46136,104.49896 115.93309,120.57686 110,123.52709 110,121.13763 c 0,-0.4743 3.40925,-4.56477 7.57611,-9.08992 8.81618,-9.57423 19.61217,-23.978354 19.11063,-25.497617 -0.45841,-1.38865 -8.08724,-2.359368 -19.18674,-2.441385 -9.84488,-0.07275 -46.012851,2.472184 -47.410544,3.336005 -0.478489,0.295723 1.989074,3.453575 5.483473,7.01745 5.497635,5.606937 12.388789,15.478237 12.417687,17.787837 0.02053,1.64071 -2.285131,0.51326 -9.713897,-4.75 -8.880078,-6.29151 -10.833433,-6.8344 -9.894629,-2.75 2.071227,9.01118 3.571773,12.32219 8.13863,17.9582 6.971589,8.60372 11.726499,18.22779 12.275295,24.84555 0.628158,7.57477 0.08225,8.60403 -3.788523,7.14298 -4.759609,-1.79656 -7.261226,-5.15565 -8.514748,-11.43334 -1.043867,-5.22773 -1.521959,-5.95015 -5.567337,-8.41251 C 64.700286,131.06175 63,131.17841 63,135.39466 c 0,6.54471 7.424335,26.86593 10.724938,29.35534 0.911527,0.6875 4.223168,1.25 7.359203,1.25 4.186678,0 5.857346,0.40513 6.286911,1.52456 0.410063,1.06861 1.339283,1.33526 3.106989,0.8916 3.328486,-0.8354 3.187483,0.46219 -0.420243,3.8673 -4.482834,4.23108 -4.757768,6.38487 -1.285014,10.06663 1.793415,1.90135 3.203093,4.68544 3.556391,7.02381 0.321913,2.13065 0.824959,4.11357 1.117878,4.40649 0.29292,0.29292 4.00867,-0.23124 8.257227,-1.16478 12.10879,-2.66071 24.79509,-3.02903 30.7297,-0.89217 10.55431,3.80026 6.2851,5.24417 -15.80898,5.34685 -8.31875,0.0386 -15.9727,0.40316 -17.008781,0.81001 -1.663128,0.65308 -1.412005,1.11338 2.143901,3.92971 3.58505,2.83941 4.73537,3.18999 10.46712,3.18999 3.54168,0 6.69228,0.25286 7.00133,0.5619 0.30905,0.30905 -0.007,2.22155 -0.70233,4.25 -3.55652,10.37528 -3.53055,9.93699 -0.92581,15.6265 1.35037,2.94959 3.00519,5.81772 3.67739,6.37362 1.14616,0.94787 16.82835,6.48754 21.22218,7.49665 1.1,0.25263 -30.5125,0.51153 -70.25,0.57533 L 0,240 z m 149.94084,36.09596 c 3.97973,-1.3536 17.8226,-4.577 30.76192,-7.16313 21.89326,-4.3757 23.58942,-4.86874 24.43927,-7.10401 2.03487,-5.35213 -0.19847,-17.47703 -3.33027,-18.08016 -1.16569,-0.22449 -2.34884,1.09033 -3.84464,4.27251 C 178.1551,139.32888 175.703,141 169.85422,141 c -3.6207,0 -5.42106,-0.60608 -7.83566,-2.63784 l -3.13489,-2.63783 -10.19184,2.71071 C 143.08633,139.92594 134.675,142.63492 130,144.455 l -8.5,3.30924 0.26708,6.86788 c 0.42185,10.8474 0.10724,10.65197 11.1185,6.9068 z m 73.78105,-43.27348 c -0.75579,-2.4626 -1.26434,-3.11584 -1.49465,-1.91992 -0.49558,2.57331 0.71904,6.83987 1.76343,6.1944 0.48697,-0.30096 0.36746,-2.20141 -0.26878,-4.27448 z"
         id="path2999"
         inkscape:connector-curvature="0"
         sodipodi:nodetypes="ccccccssssssssssssscsscsssscsssssscssssssssssssscccccssssssssssssssssssssssssssssssssssssscsssssccssssssscsscssssss" />
      <path
         style="fill:#e9b313"
         d="m -15.074637,113.74569 c 6.1494707,5.92902 21.0801759,-7.20998 24.2452703,-9.37594 C 13.173037,101.6308 21.630165,94.21801 36.170633,79.364678 47.720633,67.566159 57.275,57.999019 57,58.011469 56.173507,58.048886 47.673063,63.322678 44.123867,66 c -1.822771,1.375 -10.034551,10.2625 -18.2484,19.75 -8.213848,9.4875 -15.269695,16.33791 -15.803525,16.33791 -1.7752246,0 -1.1080481,-1.64561 2.435214,-7.529776 C 23.028728,77.085333 37.243731,61.414359 49.303935,53.992446 55.218957,50.352311 56.88253,48.892153 55.65251,48.42015 52.245671,47.112823 29.04529,63.066301 12,78.437302 11.016929,79.32381 7.0268708,82.919112 5.2227566,85.182058 2.2800903,88.87312 -8.9804636,102.07561 -14.655732,114.15752 L 0,2 l 280,0 0,238 -131.34743,-0.5 12.92372,-6.90109 c 43.06477,-22.99601 69.05506,-46.79207 75.67217,-69.28356 1.79243,-6.09246 2.74637,-7.76707 5.33635,-9.36777 4.48484,-2.77178 5.36415,-8.34764 1.88853,-11.97541 -3.91936,-4.09092 -3.30485,-7.85958 2.60689,-15.98748 5.28326,-7.26382 6.14772,-7.74921 10.37272,-5.82417 3.15067,1.43554 3.31003,3.59202 0.29705,4.01993 -1.55169,0.22037 -2.33577,1.09545 -2.52635,2.81955 -0.22978,2.07874 0.40211,2.78237 3.75,4.17574 3.72021,1.54832 4.02368,1.96651 3.99122,5.5 -0.048,5.22985 -2.43996,15.98686 -3.96285,17.82182 -0.7795,0.93925 -2.98155,1.50384 -5.87446,1.50618 -4.51964,0.004 -11.12756,2.89834 -11.12756,4.87457 0,3.29382 13.38072,0.3705 18.04122,-3.94151 4.87799,-4.51324 8.29693,-21.29135 6.04083,-29.64475 -1.32736,-4.91465 -6.88766,-12.63093 -9.45854,-13.12604 -3.5981,-0.69293 -7.01685,1.06674 -12.89097,6.63513 -6.80643,6.45218 -9.6786,11.76104 -9.71058,17.94886 C 234.00988,141.0875 233.55,143 233,143 c -0.55,0 -1,-0.40122 -1,-0.89159 0,-0.49038 -1.10053,-1.16781 -2.44562,-1.5054 -1.70123,-0.42699 -4.93984,-4.26468 -10.64018,-12.60841 C 214.40719,121.39757 210.49576,116 210.22214,116 c -0.27363,0 -0.21958,2.3647 0.12011,5.25488 0.57786,4.91675 0.32691,5.76491 -3.89988,13.18095 C 202.00016,142.22984 201.47348,145 204.43382,145 c 0.82312,0 2.97475,1.27528 4.78138,2.83397 2.86378,2.47072 6.18566,4.49097 11.7848,7.16708 3.2847,1.56992 1.0598,3.71466 -9,8.67574 -9.50201,4.68599 -11.49799,5.28562 -21,6.30877 -5.775,0.62183 -13.17203,1.81369 -16.43784,2.64858 -3.26581,0.83488 -7.31869,1.25891 -9.0064,0.9423 -1.68772,-0.31662 -7.79069,-0.047 -13.56217,0.59921 -5.77147,0.64618 -13.41859,1.22998 -16.99359,1.29732 -3.575,0.0674 -10.95003,0.49668 -16.38895,0.95408 -10.3988,0.8745 -11.6606,0.20129 -5.54764,-2.95984 C 114.67854,172.632 116,171.4454 116,170.83034 c 0,-0.61507 -2.1375,-3.95797 -4.75,-7.42868 -3.30834,-4.39513 -5.43289,-6.32423 -7,-6.35602 -3.92406,-0.0796 -2.4676,-2.34065 6.50969,-10.10585 11.16697,-9.65922 17.77325,-14.48632 27.74031,-20.26939 9.80163,-5.68708 39.29225,-19.46206 49.48853,-23.11594 l 7.48852,-2.68355 1.75547,2.16791 1.75546,2.1679 0.8914,-2.35336 0.89141,-2.35336 1.27512,2.75 c 1.27057,2.74018 2.95409,3.70386 2.95409,1.69098 0,-2.50629 1.84733,0.39561 2.8914,4.54202 0.62557,2.48435 1.34988,4.517 1.60958,4.517 0.82441,0 3.49902,-7.15733 3.49902,-9.36346 0,-1.16557 -1.62761,-4.48244 -3.61691,-7.370818 -2.73411,-3.9698 -4.50367,-5.489225 -7.25,-6.225175 C 194.56777,89.013228 176.95958,85 175.62996,85 c -1.3948,0 -54.39754,30.55337 -60.28433,34.75084 -3.24588,2.31441 -5.34563,2.87388 -5.34563,1.42432 0,-0.45366 6.31834,-7.76616 14.04077,-16.25 13.03091,-14.315746 16.27184,-18.945888 14.50094,-20.716783 -2.11819,-2.118188 -52.957346,-0.909849 -66.961185,1.591524 -4.579094,0.817921 -5.734678,2.693609 -2.20524,3.579442 4.061721,1.019427 18.564873,18.837887 18.615331,22.870657 0.02093,1.67279 -2.350352,0.44903 -11.141753,-5.75 -5.070031,-3.575 -9.585129,-6.5 -10.03355,-6.5 -1.208609,0 -0.99649,2.57126 0.688521,8.34609 1.007245,3.45201 3.569889,7.69072 7.760532,12.83621 8.117223,9.96675 12.952738,19.39055 13.531649,26.37145 0.628158,7.57477 0.08225,8.60403 -3.788523,7.14298 -4.759609,-1.79656 -7.261226,-5.15565 -8.514748,-11.43334 -1.043867,-5.22773 -1.521959,-5.95015 -5.567337,-8.41251 C 64.700286,131.06175 63,131.17841 63,135.39466 c 0,6.09228 7.963684,28.22879 10.782029,29.97063 1.356428,0.83832 12.961828,2.76822 16.467971,2.73852 3.493669,-0.0296 3.458558,0.73392 -0.192202,4.17965 -4.559293,4.30324 -4.774131,6.38226 -1.055936,10.21846 2.583928,2.66594 3.084778,3.8502 2.600929,6.14991 -1.140018,5.41845 0.238173,5.99952 9.609859,4.05168 13.4253,-2.79034 23.45706,-3.23215 30.02641,-1.32239 5.55692,1.61544 7.63149,3.08104 6.27837,4.43541 -0.37556,0.37591 -9.30812,0.91094 -19.85013,1.18896 -10.54202,0.27801 -19.770906,0.89247 -20.508646,1.36547 -0.99507,0.63797 -0.220602,1.60354 2.999996,3.74023 3.75668,2.49235 5.29529,2.88082 11.42468,2.88453 3.89584,0.002 7.32248,0.24343 7.61477,0.53572 0.6073,0.6073 -1.77124,8.5876 -3.80917,12.78021 -1.20438,2.47775 -1.14204,3.24966 0.52488,6.5 1.04035,2.02859 2.94785,4.665 4.23887,5.85869 1.98207,1.83263 15.54954,7.07711 22.34732,8.63833 L 0,240 c 0,0 -16.410286,-126.60942 -15.074637,-126.25431 z m 178.750827,40.62437 c 21.86535,-4.37013 23.56078,-4.86314 24.41058,-7.09828 2.03487,-5.35213 -0.19847,-17.47703 -3.33027,-18.08016 -1.16569,-0.22449 -2.34884,1.09033 -3.84464,4.27251 C 178.1551,139.32888 175.703,141 169.85422,141 c -3.6201,0 -5.42109,-0.60611 -7.83409,-2.63651 l -3.13331,-2.63652 -8.69341,2.2565 c -9.58705,2.48845 -27.13679,8.69979 -28.66932,10.14686 -1.21997,1.15194 -0.72136,13.92704 0.60598,15.5264 0.73734,0.88843 3.08566,0.46749 9.51387,-1.70539 4.69419,-1.58673 19.1087,-4.99831 32.03225,-7.58128 z m -15.12935,-22.41287 c 13.78162,-4.66123 33.32487,-10.25405 41.78929,-11.95912 5.42646,-1.0931 5.79442,-1.34178 5.24201,-3.54274 C 194.45859,111.99467 193.0491,109 192.06918,109 c -2.15293,0 -24.6537,9.21956 -34.15663,13.99548 -9.20372,4.62555 -23.19363,12.93254 -21.86571,12.98352 0.30076,0.0115 5.92576,-1.79826 12.5,-4.02181 z m 81.32639,-5.05227 c 1.26681,-2.24603 1.05442,-2.93733 -2.7405,-8.91982 -6.51435,-10.26955 -4.88461,-12.16388 3.77028,-4.38239 4.99954,4.49501 8.09699,5.24804 8.09699,1.96846 0,-1.77844 -15.8174,-14.7987 -17.35519,-14.28611 -1.10214,0.36738 -4.60715,10.90008 -4.63123,13.91703 -0.019,2.38187 8.9569,14.97373 10.34637,14.51442 0.62703,-0.20728 1.75801,-1.47249 2.51328,-2.81159 z M 73.087344,127.1632 C 70.698151,122.69896 57.720906,114.2423 50.75,112.60701 c -3.101681,-0.72761 -3.409924,0.20148 -1.697023,5.11511 0.981176,2.81461 1.552906,3.10122 8.384606,4.20329 4.923929,0.79432 8.765222,2.12463 11.697024,4.05089 5.306999,3.48683 5.159999,3.44269 3.952737,1.1869 z m 133.579286,-8.89776 c -0.75579,-2.4626 -1.26434,-3.11584 -1.49465,-1.91992 -0.49558,2.57331 0.71904,6.83987 1.76343,6.1944 0.48697,-0.30096 0.36746,-2.20141 -0.26878,-4.27448 z m 25.79255,-16.33149 C 231.5865,100.52193 223.9341,95 222.84996,95 c -2.25611,0 -0.33931,2.132598 4.40004,4.895396 5.89761,3.438004 6.13039,3.529104 5.20918,2.038554 z M 97,51.006033 c 0,-5.341244 1.676316,-5.92182 2.991875,-1.036207 C 100.58874,52.186422 101.48217,54 101.97727,54 c 1.02161,0 2.50443,-8.411578 1.70954,-9.697732 -0.28544,-0.461851 -3.14424,-0.6063 -6.352895,-0.320999 C 92.232786,44.434843 91.459862,44.782618 91.180449,46.75 90.784906,49.535068 89.413832,49.635512 87.767927,47 86.099749,44.328822 85,44.4739 85,47.365141 c 0,4.107681 3.298293,7.181891 7.902371,7.365489 L 97,54.894032 z m 24.25,-4.206141 C 124.17375,45.741451 125.04635,43 122.45951,43 120.6191,43 115,46.988656 115,48.295047 c 0,0.505412 0.7875,0.599758 1.75,0.209659 0.9625,-0.390099 2.9875,-1.157266 4.5,-1.704814 z m -9.47251,-1.356596 C 114.70687,43.391484 114.59473,42 111.5,42 c -1.375,0 -2.5,0.413196 -2.5,0.918213 0,0.505016 -0.27314,1.630016 -0.60699,2.5 -0.77074,2.008518 0.53888,2.018224 3.38448,0.02508 z"
         id="path2997"
         inkscape:connector-curvature="0"
         sodipodi:nodetypes="cssssssssssscccccssssssssssscssssssssssssssssssssscsssssssscccccssssssssssssssssssssssssssssssssssscsssscccsssssscsssssssssscsssssssssssssssssssssssssssssssscsssssssssss" />
      <path
         style="fill:#5f5f9b"
         d="M 0.01078238,175.25 0.02156475,112.79314 7.6470783,106.5 C 13.505069,101.66555 17.468144,100.21458 33.886296,83.124441 44.123833,72.467883 55.122181,61.965064 58.327069,59.784843 61.531957,57.604622 63.950135,55.616802 63.700798,55.367465 62.697545,54.364212 52.667173,59.061945 46.660155,63.348464 41.381687,67.1151 21.327019,88.589941 15.128028,97.113541 14.373443,98.151094 13.093183,99 12.283006,99 10.407946,99 14.061396,92.463595 21.613328,82.307078 32.427932,67.762625 44.843014,56.359543 55.25,51.412255 c 4.412616,-2.097675 4.698781,-2.99773 1.167716,-3.672735 -1.612679,-0.308284 -4.334932,0.43274 -7.25,1.973521 C 41.205262,53.921656 23.021053,67.483449 11.25,77.992095 L 0,88.035569 0,45.214505 0,2.3934421 139.99998,2.446721 279.99995,2.5 l 3e-5,118.75 L 280,240 160.1367,240 c -13.38118,0 -13.57684,0.49311 3.3633,-8.4762 40.65429,-21.52525 67.25114,-46.12414 73.74846,-68.20845 1.79243,-6.09246 2.74637,-7.76707 5.33635,-9.36777 4.48484,-2.77178 5.36415,-8.34764 1.88853,-11.97541 -3.91936,-4.09092 -3.30485,-7.85958 2.60689,-15.98748 5.28326,-7.26382 6.14772,-7.74921 10.37272,-5.82417 3.01336,1.37297 3.3856,3.83948 0.57944,3.83948 -1.86953,0 -10.06745,9.49688 -10.00549,11.59087 0.0148,0.50002 1.31731,2.4655 2.89448,4.36772 2.63097,3.17321 3.08258,3.36064 5.4731,2.27144 2.88708,-1.31544 3.48707,-4.84559 1.39337,-8.19812 -1.62106,-2.59574 -0.37098,-3.61863 2.70792,-2.21579 2.96515,1.35101 3.23035,4.97199 1.09357,14.93144 -1.74517,8.13414 -2.7667,9.25158 -8.46178,9.25618 -4.57261,0.004 -11.12756,2.90535 -11.12756,4.9258 0,0.52741 1.10042,2.22153 2.44537,3.7647 l 2.44537,2.80576 4.80463,-2.64524 c 8.79673,-4.84313 13.49193,-13.42656 14.89977,-27.23869 0.7819,-7.67104 -0.67903,-13.25949 -4.91975,-18.81945 -3.45792,-4.53364 -5.25999,-5.36868 -9.36339,-4.33879 -3.71059,0.9313 -12.84952,9.98243 -18.46959,18.29217 -2.69685,3.9875 -5.31351,7.25 -5.81481,7.25 -0.5013,0 -4.65009,-5.47356 -9.21953,-12.16348 -7.78627,-11.39952 -8.34009,-11.98049 -8.81789,-9.25 -0.64227,3.67039 -2.12881,3.33054 -3.72462,-0.8515 -1.14077,-2.98955 -1.19758,-2.75843 -0.74863,3.04584 0.39343,5.08661 0.18755,6.39531 -1.08278,6.88278 -0.86272,0.33106 -2.02277,0.14774 -2.57788,-0.40737 -0.8878,-0.8878 -8.50872,0.0628 -9.64958,1.20371 -0.19271,0.19271 0.35695,2.43378 1.22146,4.98015 0.86452,2.54637 1.57185,6.63904 1.57185,9.09482 l 0,4.46505 5.5,0 c 16.45898,0 -5.702,7.1968 -33.78182,10.97068 -8.48856,1.14085 -18.53524,2.73134 -22.32596,3.53443 C 136.48179,163.18099 133,163.37252 133,162.13178 c 0,-1.26922 8.81022,-3.47839 32.83654,-8.23381 19.7843,-3.9158 21.403,-4.39782 22.25,-6.6256 2.03508,-5.35266 -0.19804,-17.47758 -3.33004,-18.08075 -1.16569,-0.22449 -2.34884,1.09033 -3.84464,4.27251 C 178.1551,139.32888 175.703,141 169.85422,141 c -3.6201,0 -5.42109,-0.60611 -7.83409,-2.63651 l -3.13331,-2.63652 -8.69341,2.2565 c -11.37602,2.9528 -25.14153,8.08437 -36.4471,13.58691 -8.97176,4.36664 -12.2334,5.34586 -11.57964,3.47647 0.59194,-1.69264 19.64782,-17.65627 26.82258,-22.47002 12.35954,-8.29235 42.12749,-22.92803 58.99928,-29.00754 l 7.48852,-2.69838 1.75547,2.16791 1.75546,2.1679 0.8914,-2.35336 0.89141,-2.35336 1.27512,2.75 c 1.27057,2.74018 2.95409,3.70386 2.95409,1.69098 0,-2.50629 1.84733,0.39561 2.8914,4.54202 0.62557,2.48435 1.34988,4.517 1.60958,4.517 1.68939,0 6.82794,-18.979269 5.83742,-21.560533 -0.59301,-1.54536 -7.54947,-4.574466 -16.8384,-7.332078 -24.08553,-7.15029 -63.33546,-8.526364 -115.5,-4.049347 -14.523848,1.246508 -34.296926,3.943334 -35.149325,4.793973 -0.357129,0.356392 -0.96276,4.318627 -1.345847,8.804967 l -0.696522,8.156978 8.345847,3.94103 c 10.234449,4.83286 19.156359,11.49282 23.990446,17.90821 6.033272,8.00684 10.149196,16.83444 10.646775,22.83459 0.632977,7.63287 0.09208,8.66195 -3.783882,7.19894 -4.759609,-1.79656 -7.261226,-5.15565 -8.514748,-11.43334 -1.043867,-5.22773 -1.521959,-5.95015 -5.567337,-8.41251 C 64.700286,131.06175 63,131.17841 63,135.39466 c 0,3.90229 3.138991,14.60142 6.540311,22.29241 3.091643,6.99075 1.36322,8.01211 -3.758197,2.2208 -2.483137,-2.80794 -3.713006,-3.68193 -3.388341,-2.40787 0.280311,1.1 0.999739,5.825 1.598728,10.5 1.719589,13.42106 3.159484,20.21665 5.112465,24.12831 3.461076,6.93223 24.740982,23.87125 44.653784,35.54485 7.44021,4.36173 21.03648,9.86599 28.74125,11.63551 1.1,0.25263 -30.5125,0.51153 -70.25,0.57533 L 0,240 z M 57,133.5 c 0,-4.17204 -0.188272,-4.5 -2.583333,-4.5 -1.420834,0 -2.421594,0.3375 -2.223912,0.75 1.86578,3.8933 4.23818,8.25 4.492457,8.25 C 56.858346,138 57,135.975 57,133.5 z m 94.5,-1.52839 c 9.9,-3.31501 23.85,-7.44488 31,-9.17748 7.15,-1.7326 13.37215,-3.46472 13.82699,-3.84915 1.03206,-0.87228 -1.20875,-8.60196 -2.90076,-10.0062 -2.6492,-2.19864 -37.30917,12.78336 -53.29154,23.03562 -12.224,7.84137 -12.06047,7.84133 11.36531,-0.003 z m -76.860088,-4.37706 c -5.18442,-6.79713 -14.596196,-13.12087 -22.946259,-15.41753 -4.599508,-1.26508 -5.465921,-0.047 -3.723032,5.23396 1.241421,3.76154 1.609383,3.95871 10.254485,5.49471 6.174062,1.09697 9.345066,2.50034 14.703284,6.50716 4.392703,3.28481 5.061728,2.57404 1.711522,-1.8183 z m 155.731058,0.35459 1.80219,-3.05086 -3.58658,-6.02081 c -5.51564,-9.25914 -4.45159,-10.55953 3.01146,-3.68033 3.66028,3.37392 4.88175,3.99133 6.22766,3.14787 3.54041,-2.21873 2.30833,-4.69565 -5.35301,-10.76148 C 228.36271,104.32947 225,101.25067 225,100.74176 c 0,-0.50892 2.94049,0.691 6.53442,2.66647 3.59394,1.97547 6.81368,3.59177 7.15499,3.59177 1.29287,0 -3.41573,-4.45319 -9.13949,-8.643749 -6.70247,-4.907098 -9.0915,-5.535261 -8.2084,-2.158287 0.31613,1.20888 0.2066,2.67138 -0.24339,3.25 C 219.96229,100.90849 216,113.02461 216,115.03734 216,117.26762 225.73016,131 227.31044,131 c 0.69209,0 2.06933,-1.37289 3.06053,-3.05086 z M 98.05672,54.431656 c 0.936443,-1.128345 1.526113,-1.192837 2.61834,-0.286369 2.09669,1.7401 3.28869,-0.04362 3.99081,-5.971862 L 105.27858,43 99.361797,43 c -3.784733,0 -6.733121,0.571784 -8.182249,1.586793 -1.628734,1.14081 -2.623381,1.289748 -3.538921,0.529917 C 86.757692,44.383939 85.2297,44.373905 82.657986,45.083989 78.894907,46.123025 78.509364,48 82.059017,48 83.126558,48 84,48.415474 84,48.923275 c 0,0.507801 1.083137,2.21051 2.406971,3.783797 1.844592,2.192173 3.345543,2.89795 6.424042,3.020712 2.4662,0.09835 4.483689,-0.40205 5.225707,-1.296128 z m 26.26739,-1.83389 c 0.29595,-0.771229 0.28493,-1.655397 -0.0245,-1.964817 C 123.53113,49.864459 120,51.83733 120,53.035184 c 0,1.507625 3.72222,1.131093 4.32411,-0.437418 z m -3.00864,-5.039273 c 4.21983,-1.813853 4.77784,-4.827657 0.99406,-5.368904 C 120.2242,41.891294 112,48.159011 112,50.046557 c 0,0.919421 3.66623,-0.05979 9.31547,-2.488064 z m -8.85351,-1.659236 C 116.432,42.413515 116.2755,41 111.91954,41 c -3.22285,0 -5.71109,3.494879 -4.58238,6.43623 0.80894,2.108064 1.05862,2.033183 5.1248,-1.536973 z M 107.75,213.50007 c -3.1625,-2.49112 -5.75,-5.17734 -5.75,-5.96938 0,-1.81557 4.79877,-2.75265 12,-2.34332 4.30811,0.24488 5.41285,0.63769 5.09786,1.81263 -0.22118,0.825 -0.94533,3.525 -1.60922,6 -0.66388,2.475 -1.83292,4.61911 -2.59785,4.76469 -0.76494,0.14558 -3.97829,-1.7735 -7.14079,-4.26462 z M 92,196.93949 c 0,-0.34966 1.6875,-1.37281 3.75,-2.27368 9.63648,-4.20905 28.8795,-5.75251 36.68398,-2.94237 6.41622,2.31027 6.90676,3.98053 1.37593,4.68501 C 127.39165,197.22596 92,197.67548 92,196.93949 z m -9.395678,-8.97792 C 79.027257,186.89114 74,182.20891 74,179.94777 c 0,-3.27902 4.069796,-6.79841 11.010673,-9.52157 3.850988,-1.51089 7.304145,-2.44472 7.673683,-2.07518 0.369538,0.36954 -0.738872,2.05117 -2.463132,3.73695 -4.704062,4.59909 -4.955146,6.5596 -1.320379,10.30973 3.464948,3.57492 3.850897,5.09985 1.517368,5.99531 -2.01933,0.77489 -4.181649,0.6555 -7.813891,-0.43144 z M 117,174.03938 c 0,-1.75178 8.01165,-5.16453 17.90618,-7.62756 17.86319,-4.44665 17.63644,-2.57962 -0.40618,3.3445 -15.06086,4.9451 -17.5,5.54207 -17.5,4.28306 z m 25.77827,-2.59663 C 149.64108,166.63585 170.46492,159 176.71108,159 c 2.08608,0 8.5161,-0.9 14.28892,-2 17.57695,-3.34925 20.01847,-2.23517 6.75,3.08008 -4.5375,1.81769 -11.4,5.01194 -15.25,7.09834 -6.62409,3.58974 -10.21181,4.78233 -9.13232,3.03568 0.26714,-0.43225 3.8937,-2.49302 8.05902,-4.5795 7.37486,-3.69418 9.37844,-5.63328 5.8233,-5.63588 -7.34525,-0.005 -19.56724,2.65211 -26.01357,5.65621 -14.33279,6.67933 -24.10636,9.74397 -18.45816,5.78782 z m 60.25744,-9.83706 C 204.40343,160.30333 214.39242,157 216.96292,157 c 2.14839,0 -0.18586,2.19744 -4.33629,4.08216 -2.26965,1.03066 -5.68556,1.8838 -7.59092,1.89588 -2.9958,0.019 -3.26626,-0.16659 -2,-1.37235 z M 116.30859,114.40525 C 119.30882,108.53688 143.26791,88 147.11395,88 c 2.16183,0 0.38915,2.146601 -6.29245,7.619787 -3.94817,3.234117 -10.58567,8.766723 -14.75,12.294673 -4.16432,3.52795 -8.42056,7.12795 -9.4583,8 -1.83071,1.5384 -1.83976,1.49352 -0.30461,-1.50921 z M 73.75,103.46219 C 67.8375,98.777939 63,94.518799 63,93.997435 c 0,-1.12155 4.179395,0.314383 7.322289,2.515751 3.659819,2.563438 4.962095,1.790479 2.528683,-1.500887 C 69.17463,90.03978 71.703613,90.332872 76.604054,95.447256 81.56894,100.6289 87,108.59505 87,110.69578 c 0,2.60008 -2.694791,1.12891 -13.25,-7.23359 z M 140,99.257482 c 0,-1.33395 20.69051,-13.527311 22.13629,-13.045386 1.47047,0.490157 -7.76905,7.636483 -13.63629,10.547021 -5.31525,2.636712 -8.5,3.572793 -8.5,2.498365 z"
         id="path2995"
         inkscape:connector-curvature="0"
         sodipodi:nodetypes="ccssssssssssssccccccccssssssssssssscsscsssssssssssscsscsssssssssscssssscccccssssssssscsssssssssssssssccssssscssssccssssssscsssssssssssssssscsssssssssscssssssssssssssssssssssssssssssssssssssssscssssssssssssssssssssssss" />
      <path
         style="fill:#e56208"
         d="m -15.037507,114.13147 c 1.568652,1.29003 3.848658,1.81528 6.3983609,1.16101 5.8581989,-1.50326 13.1401169,-7.17336 16.4889116,-9.40054 C 11.19856,103.66476 15.238585,100.21458 33.886296,83.124441 44.78051,73.140179 55.122181,61.965064 58.327069,59.784843 61.531957,57.604622 63.950135,55.616802 63.700798,55.367465 62.697545,54.364212 52.667173,59.061945 46.660155,63.348464 41.381687,67.1151 21.327019,88.589941 15.128028,97.113541 14.373443,98.151094 13.093183,99 12.283006,99 10.407946,99 14.061396,92.463595 21.613328,82.307078 32.427932,67.762625 44.843014,56.359543 55.25,51.412255 c 4.412616,-2.097675 4.698781,-2.99773 1.167716,-3.672735 -1.612679,-0.308284 -4.334932,0.43274 -7.25,1.973521 C 41.205262,53.921656 23.021053,67.483449 11.25,77.992095 c 0,0 -5.3306124,4.615624 -8.8379773,9.266136 C -1.0953422,91.908743 -10.171482,104.77988 -14.627744,114.04955 5.0185924,76.231958 39.626871,48.26229 38.170075,4.7751413 L 139.99996,2.4447558 279.99993,2.5 l 3e-5,71.079401 4e-5,71.079399 -2.1881,-0.0794 c -1.72337,-0.0625 -2.44304,0.78799 -3.38842,4.00449 -0.66018,2.24614 -1.93315,5.50102 -2.82883,7.23307 -1.53294,2.96439 -1.51825,3.25944 0.25029,5.02798 1.03334,1.03334 3.29095,2.71298 5.01693,3.73253 2.75526,1.62758 3.13813,2.38641 3.13813,6.2197 l 0,4.36595 -3.75,-2.27122 c -2.0625,-1.24917 -5.31503,-3.53588 -7.22784,-5.08156 C 267.10934,166.26465 264.96061,165 264.24719,165 c -0.71341,0 -4.53406,1.6301 -8.49033,3.62244 -5.14894,2.59297 -8.41818,3.59786 -11.50352,3.53593 -4.2502,-0.0853 -4.34749,-0.0107 -6.97644,5.34961 -1.46637,2.98987 -2.35648,5.74577 -1.97803,6.12422 0.37845,0.37845 4.85352,1.50966 9.94461,2.51381 8.86991,1.74947 13.0408,1.8035 30.50652,0.39524 l 4.25,-0.34268 0,26.90071 0,26.90072 -130.92773,-0.0187 11.21386,-5.84359 c 42.88593,-22.34802 70.96595,-47.69578 77.81441,-70.24284 1.62065,-5.33565 2.87349,-7.53606 5.37877,-9.44693 4.57978,-3.49317 5.44052,-8.87845 1.99403,-12.47581 -3.88166,-4.05158 -3.31258,-8.04645 2.21953,-15.5808 4.80584,-6.54523 6.51673,-7.42103 9.80294,-5.01809 1.83235,1.33984 1.83091,1.38932 -0.0589,2.03199 -1.84347,0.62693 -9.46669,10.57904 -9.41004,12.2848 0.0148,0.44546 1.31731,2.3663 2.89448,4.26852 2.63097,3.17321 3.08258,3.36064 5.4731,2.27144 2.88708,-1.31544 3.48707,-4.84559 1.39337,-8.19812 -0.66667,-1.06752 -0.9355,-2.2176 -0.59737,-2.55572 0.86508,-0.86508 4.73879,1.71353 5.2899,3.52133 0.63046,2.0681 -2.91326,17.83536 -4.32605,19.24815 -0.63021,0.63021 -3.00543,1.03612 -5.27825,0.90202 -3.05328,-0.18016 -5.15378,0.43208 -8.04366,2.34451 l -3.91125,2.58835 2.16386,3.03886 c 1.19012,1.67138 2.77144,3.27202 3.51403,3.55698 1.73046,0.66404 7.83295,-2.97639 12.68316,-7.56612 6.60124,-6.24671 10.42467,-23.45522 7.30092,-32.85997 C 264.3363,119.48569 258.70193,113 255.07212,113 c -5.37463,0 -14.67254,8.73646 -22.23614,20.89341 -4.68842,7.53568 -3.55301,8.15115 -14.35005,-7.77863 -7.56798,-11.16567 -7.69493,-11.45494 -6.58283,-15 1.85324,-5.90763 3.95345,-17.325022 3.4353,-18.675313 -0.59301,-1.54536 -7.54947,-4.574466 -16.8384,-7.332078 -24.08553,-7.15029 -63.33546,-8.526364 -115.5,-4.049347 -14.523848,1.246508 -34.296926,3.943334 -35.149325,4.793973 -0.357129,0.356392 -0.960744,4.295851 -1.341367,8.754355 l -0.692041,8.10637 9.841366,4.78123 c 8.058407,3.91502 11.036856,6.03306 16.440081,11.69092 8.145104,8.52894 14.524127,19.40755 15.971565,27.23746 1.311431,7.09418 0.463337,8.45554 -4.092107,6.56861 -3.949927,-1.63611 -5.64435,-4.26707 -6.488981,-10.07552 -0.366663,-2.5215 -0.964229,-5.04817 -1.327925,-5.61482 -1.168626,-1.82074 -12.063303,-7.4792 -13.130446,-6.81967 -2.641445,1.63251 0.06406,14.89304 5.586156,27.37947 1.32491,2.99586 2.141072,5.71486 1.813695,6.04224 -0.327377,0.32738 -2.384279,-1.42929 -4.570892,-3.90371 -2.506854,-2.83681 -3.787369,-3.76005 -3.466006,-2.49895 0.280311,1.1 0.999739,5.825 1.598728,10.5 1.719589,13.42106 3.159484,20.21665 5.112465,24.12831 4.203891,8.42003 32.726874,29.88359 55.553164,41.80379 2.56151,1.33766 7.84882,3.21703 11.74958,4.17639 -46.875479,0 -119.473725,-103.03663 -151.445217,-123.97702 z M 83,148.5 c 0,-0.825 -0.435877,-1.5 -0.968615,-1.5 -0.532739,0 -0.709594,0.675 -0.393011,1.5 0.316582,0.825 0.752459,1.5 0.968615,1.5 C 82.823145,150 83,149.325 83,148.5 z m -26,-15 c 0,-4.17204 -0.188272,-4.5 -2.583333,-4.5 -1.420834,0 -2.421594,0.3375 -2.223912,0.75 1.86578,3.8933 4.23818,8.25 4.492457,8.25 C 56.858346,138 57,135.975 57,133.5 z m 17.639912,-5.90545 c -5.18442,-6.79713 -14.596196,-13.12087 -22.946259,-15.41753 -4.599508,-1.26508 -5.465921,-0.047 -3.723032,5.23396 1.241421,3.76154 1.609383,3.95871 10.254485,5.49471 6.174062,1.09697 9.345066,2.50034 14.703284,6.50716 4.392703,3.28481 5.061728,2.57404 1.711522,-1.8183 z m 155.731058,0.35459 1.80219,-3.05086 -3.58658,-6.02081 c -5.51564,-9.25914 -4.45159,-10.55953 3.01146,-3.68033 3.66028,3.37392 4.88175,3.99133 6.22766,3.14787 3.54041,-2.21873 2.30833,-4.69565 -5.35301,-10.76148 C 228.36271,104.32947 225,101.25067 225,100.74176 c 0,-0.50892 2.94049,0.691 6.53442,2.66647 3.59394,1.97547 6.81368,3.59177 7.15499,3.59177 1.29287,0 -3.41573,-4.45319 -9.13949,-8.643749 -6.70247,-4.907098 -9.0915,-5.535261 -8.2084,-2.158287 0.31613,1.20888 0.2066,2.67138 -0.24339,3.25 C 219.96229,100.90849 216,113.02461 216,115.03734 216,117.26762 225.73016,131 227.31044,131 c 0.69209,0 2.06933,-1.37289 3.06053,-3.05086 z M 272.8,119.8 c 0.66,-0.66 1.2,-2.63206 1.2,-4.38235 0,-8.56828 -20.74517,-21.617309 -57.8048,-36.3601 C 188.94312,68.216329 185.86522,67.633977 146.5,65.870943 c -23.70924,-1.061856 -29.55948,-1.003372 -48,0.479854 -11.55,0.929001 -26.978581,2.728878 -34.285735,3.999727 -12.68974,2.20698 -13.416889,2.46403 -16.20936,5.730055 -1.607993,1.880682 -2.941912,3.756921 -2.964264,4.169421 -0.05431,1.002281 2.595928,0.909967 7.459359,-0.259827 6.80479,-1.636746 28.116506,-3.849566 48,-4.983895 10.45,-0.596159 19.79294,-1.250748 20.76208,-1.454642 3.75349,-0.789678 52.78439,1.53764 62.73792,2.977939 5.775,0.835657 14.11177,2.617103 18.52616,3.958771 9.81092,2.981836 35.4635,16.611673 43.10553,22.903014 4.50764,3.71094 6.34806,4.60864 9.44839,4.60864 4.48133,0 9.36671,3.70068 12.45444,9.43423 2.02643,3.76287 3.29736,4.33389 5.26548,2.36577 z M 98.05672,54.431656 c 0.936443,-1.128345 1.526113,-1.192837 2.61834,-0.286369 2.09669,1.7401 3.28869,-0.04362 3.99081,-5.971862 L 105.27858,43 99.361797,43 c -3.784733,0 -6.733121,0.571784 -8.182249,1.586793 -1.628734,1.14081 -2.623381,1.289748 -3.538921,0.529917 C 86.757692,44.383939 85.2297,44.373905 82.657986,45.083989 78.894907,46.123025 78.509364,48 82.059017,48 83.126558,48 84,48.415474 84,48.923275 c 0,0.507801 1.083137,2.21051 2.406971,3.783797 1.844592,2.192173 3.345543,2.89795 6.424042,3.020712 2.4662,0.09835 4.483689,-0.40205 5.225707,-1.296128 z m 26.26739,-1.83389 c 0.29595,-0.771229 0.28493,-1.655397 -0.0245,-1.964817 C 123.53113,49.864459 120,51.83733 120,53.035184 c 0,1.507625 3.72222,1.131093 4.32411,-0.437418 z m 18.21441,-1.136968 c 10.64238,-3.08404 22.27604,-8.3782 24.88049,-11.322427 2.68984,-3.040749 3.38648,-12.260099 1.18078,-15.626422 -2.68141,-4.092349 -3.13519,-3.930925 -20.55947,7.313751 -4.65282,3.002677 -10.55907,6.331882 -13.125,7.398234 l -4.66532,1.938821 0,6.418623 c 0,7.632219 -0.31665,7.532255 12.28852,3.87942 z m -21.22305,-3.902305 c 4.21983,-1.813853 4.77784,-4.827657 0.99406,-5.368904 C 120.2242,41.891294 112,48.159011 112,50.046557 c 0,0.919421 3.66623,-0.05979 9.31547,-2.488064 z m -8.85351,-1.659236 C 116.432,42.413515 116.2755,41 111.91954,41 c -3.22285,0 -5.71109,3.494879 -4.58238,6.43623 0.80894,2.108064 1.05862,2.033183 5.1248,-1.536973 z M 107.75,213.48475 c -5.75541,-4.51824 -7.28562,-7.41288 -4,-7.56665 4.16194,-0.19478 13.76483,0.28205 14.47112,0.71856 0.42435,0.26226 0.0982,1.77896 -0.72479,3.37043 -0.82298,1.59147 -1.49633,4.04094 -1.49633,5.44325 0,3.59685 -1.67186,3.19853 -8.25,-1.96559 z M 92,197.15512 c 0,-0.59292 1.9125,-1.57418 4.25,-2.18059 2.3375,-0.60641 5.825,-1.5376 7.75,-2.0693 6.39909,-1.76751 23.13466,-2.22735 27.42347,-0.75352 7.99287,2.74672 5.33117,3.51071 -14.6424,4.20282 C 106.17648,196.722 96.2625,197.29501 94.75,197.6279 93.076333,197.99626 92,197.81122 92,197.15512 z m -9.395678,-9.19355 C 79.087919,186.9093 74,182.22239 74,180.03542 c 0,-3.00199 3.282142,-6.27025 8.705547,-8.66874 6.330106,-2.79948 8.095417,-2.33084 5.475282,1.45353 -3.414432,4.93159 -3.360913,5.9747 0.527365,10.27856 2.964006,3.2808 3.388808,4.22728 2.227196,4.96232 -1.73222,1.09611 -4.443856,1.06372 -8.331068,-0.0995 z M 117,174.03938 c 0,-1.75178 8.01165,-5.16453 17.90618,-7.62756 17.86319,-4.44665 17.63644,-2.57962 -0.40618,3.3445 -15.06086,4.9451 -17.5,5.54207 -17.5,4.28306 z m 25.77827,-2.59663 C 149.64108,166.63585 170.46492,159 176.71108,159 c 2.08608,0 8.5161,-0.9 14.28892,-2 17.57695,-3.34925 20.01847,-2.23517 6.75,3.08008 -4.5375,1.81769 -11.4,5.01194 -15.25,7.09834 -6.62409,3.58974 -10.21181,4.78233 -9.13232,3.03568 0.26714,-0.43225 3.8937,-2.49302 8.05902,-4.5795 7.37486,-3.69418 9.37844,-5.63328 5.8233,-5.63588 -7.34525,-0.005 -19.56724,2.65211 -26.01357,5.65621 -14.33279,6.67933 -24.10636,9.74397 -18.45816,5.78782 z m -8.57864,-9.49466 c 0.93479,-0.5451 13.08479,-3.25395 27,-6.01967 15.06968,-2.99518 25.90692,-5.63036 26.80037,-6.51677 1.04488,-1.03666 1.48945,-3.52462 1.46524,-8.19992 -0.0582,-11.22834 -4.58392,-16.82264 -8.21923,-10.1598 C 177.32398,138.24029 175.1548,140 170.21583,140 c -3.62677,0 -5.19783,-0.56663 -7.38745,-2.66442 -2.734,-2.61935 -2.87876,-2.64286 -8.55472,-1.38982 -9.96359,2.19959 -29.59315,9.00429 -33.25978,11.52971 -4.72942,3.2574 -16.96678,8.90496 -17.70217,8.16957 -0.9351,-0.93509 13.33044,-13.29193 25.18829,-21.81816 7.34844,-5.28379 19.29457,-11.66493 36.99518,-19.76131 19.31815,-8.83626 29.38055,-12.62789 30.39763,-11.45418 0.42352,0.48873 1.31396,2.80111 1.97875,5.13861 1.49372,5.25208 2.90231,5.46336 3.33347,0.5 0.31058,-3.57517 0.38569,-3.47027 1.61114,2.25 3.0023,14.01451 3.23837,15.84546 2.17951,16.90432 -0.7343,0.7343 -1.5619,0.72829 -2.74812,-0.02 -1.48503,-0.93673 -8.81359,-0.15166 -10.04087,1.07562 -0.19271,0.19271 0.35695,2.43378 1.22146,4.98015 0.86452,2.54637 1.57185,6.63904 1.57185,9.09482 l 0,4.46505 5.5,0 c 16.45898,0 -5.702,7.1968 -33.78182,10.97068 -8.48856,1.14085 -18.53524,2.73134 -22.32596,3.53443 -3.79072,0.80309 -8.01722,1.45429 -9.39222,1.44712 -2.13028,-0.0111 -2.24864,-0.15962 -0.80037,-1.00414 z M 151.5,131.97161 c 9.9,-3.31501 23.85,-7.44488 31,-9.17748 7.15,-1.7326 13.37215,-3.46472 13.82699,-3.84915 1.03206,-0.87228 -1.20875,-8.60196 -2.90076,-10.0062 -2.6492,-2.19864 -37.30917,12.78336 -53.29154,23.03562 -12.224,7.84137 -12.06047,7.84133 11.36531,-0.003 z m 21.57971,1.43235 c 1.15647,-1.39347 1.0233,-1.55212 -1.04923,-1.25 -1.3056,0.19032 -2.55907,0.90854 -2.78549,1.59604 -0.59252,1.79918 2.26862,1.54099 3.83472,-0.34604 z m 29.956,28.20173 C 204.40343,160.30333 214.39242,157 216.96292,157 c 2.14839,0 -0.18586,2.19744 -4.33629,4.08216 -2.26965,1.03066 -5.68556,1.8838 -7.59092,1.89588 -2.9958,0.019 -3.26626,-0.16659 -2,-1.37235 z M 115.84645,115.33077 C 119.1268,109.07489 143.23733,88 147.11395,88 c 2.16183,0 0.38915,2.146601 -6.29245,7.619787 -3.94817,3.234117 -10.58567,8.766723 -14.75,12.294673 -12.66248,10.72746 -11.53094,9.90674 -10.22505,7.41631 z M 75.251868,104.49436 C 65.114857,96.898299 62.322287,94.34438 63.196986,93.46968 c 0.265094,-0.265093 2.603031,0.645782 5.195416,2.024166 6.023394,3.20267 7.273594,3.16829 4.680178,-0.128705 C 71.932661,93.915969 71,92.256778 71,91.67805 c 0,-1.822082 6.032052,4.54331 11.114572,11.72878 7.88555,11.14828 6.794241,11.32122 -6.862704,1.08753 z M 140,99.257482 c 0,-1.33395 20.69051,-13.527311 22.13629,-13.045386 1.47047,0.490157 -7.76905,7.636483 -13.63629,10.547021 -5.31525,2.636712 -8.5,3.572793 -8.5,2.498365 z"
         id="path2993"
         inkscape:connector-curvature="0"
         sodipodi:nodetypes="cszssssssssssszcccccccssssscsssssssssccccssssssscssscsssscssssssssssssscssssssssssssssccssssssssssssssssscssssssssssssssssssssssssssssssssscsssssssssscssssssscssssssssssssssssssssssscsssssccssssssssssscsscsssssssssssssssscssscsssscccssssccsssssssssssssssssssssssss" />
      <path
         style="fill:#62561b"
         d="M 0.01078238,175.25 -14.831709,114.05695 c 0,0 4.051824,4.1876 11.5863527,-0.5342 C 4.2891721,108.80096 17.468144,100.21458 33.886296,83.124441 44.123833,72.467883 55.122181,61.965064 58.327069,59.784843 61.531957,57.604622 63.950135,55.616802 63.700798,55.367465 62.697545,54.364212 52.667173,59.061945 46.660155,63.348464 41.381687,67.1151 21.327019,88.589941 15.128028,97.113541 14.373443,98.151094 13.093183,99 12.283006,99 10.407946,99 14.061396,92.463595 21.613328,82.307078 32.427932,67.762625 44.843014,56.359543 55.25,51.412255 c 4.412616,-2.097675 4.698781,-2.99773 1.167716,-3.672735 -1.612679,-0.308284 -4.334932,0.43274 -7.25,1.973521 -7.962454,4.208615 -40.803608,26.89374 -49.09679362,40.318061 0,0 -14.56516438,20.466868 -14.78978638,24.640228 -0.275295,-0.48845 -0.186573,-67.073759 -0.186573,-67.073759 L 0,2 39.106989,2 C 71.624862,2 77.90827,2.1386639 77.90827,2.1386639 77.486715,3.2372171 67.081334,18.155625 54.039023,35.158161 c -3.461689,4.512812 -2.748584,5.5334 4.810146,6.88422 6.06279,1.083481 8.043326,0.986111 17.25,-0.848068 C 92.680788,37.890877 102.49658,36.827674 118,36.655803 c 13.80908,-0.153088 14.76893,-0.296921 20.14382,-3.018549 3.10411,-1.571791 9.06342,-5.71219 13.24293,-9.200888 11.51425,-9.611118 17.37802,-9.804552 21.95401,-0.72422 6.6278,13.151826 3.53529,19.95961 -12.57306,27.678034 -3.99723,1.915303 -11.42346,4.46493 -16.50271,5.665838 -5.07926,1.200907 -9.02411,2.524723 -8.76633,2.941813 0.25778,0.41709 7.56353,1.058 16.23501,1.424244 20.14209,0.850712 27.74647,1.911793 43.76633,6.106959 32.47568,8.504499 50.69336,16.338068 66.6439,28.656759 6.26552,4.838887 6.99226,3.606681 4.41176,-7.480277 C 256.56959,45.800882 251.88334,28.381929 248.47526,21.5 246.48128,17.473563 244.24683,15.239784 236.99958,10.027813 232.04981,6.4681094 228,3.2056094 228,2.7778125 228,2.3500156 239.7,2 254,2 l 26,0 0,71.329401 0,71.329399 -2.1881,-0.0794 c -1.72337,-0.0625 -2.44304,0.78799 -3.38842,4.00449 -0.66018,2.24614 -1.93315,5.50102 -2.82883,7.23307 -1.53294,2.96439 -1.51825,3.25944 0.25029,5.02798 1.03334,1.03334 3.29095,2.71298 5.01693,3.73253 2.75526,1.62758 3.13813,2.38641 3.13813,6.2197 l 0,4.36595 -3.75,-2.27122 c -2.0625,-1.24917 -5.31503,-3.53588 -7.22784,-5.08156 C 267.10934,166.26465 264.96061,165 264.24719,165 c -0.71341,0 -4.53406,1.6301 -8.49033,3.62244 -5.14894,2.59297 -8.41818,3.59786 -11.50352,3.53593 -4.2502,-0.0853 -4.34749,-0.0107 -6.97644,5.34961 -1.46637,2.98987 -2.35648,5.74577 -1.97803,6.12422 0.37845,0.37845 4.85352,1.50966 9.94461,2.51381 8.86991,1.74947 13.0408,1.8035 30.50652,0.39524 l 4.25,-0.34268 0,26.90071 0,26.90072 -28.92245,0 c 0,0 -44.52556,-0.22738 -50.40683,0 -14.7159,-0.0562 -25.9445,-0.23081 -40.17153,-0.11315 l -11.42692,0.0945 11.21386,-5.84359 c 42.88593,-22.34802 70.96595,-47.69578 77.81441,-70.24284 1.62065,-5.33565 2.87349,-7.53606 5.37877,-9.44693 4.57978,-3.49317 5.44052,-8.87845 1.99403,-12.47581 -3.88166,-4.05158 -3.31258,-8.04645 2.21953,-15.5808 4.80584,-6.54523 6.51673,-7.42103 9.80294,-5.01809 1.83235,1.33984 1.83092,1.38935 -0.0589,2.03326 -1.87048,0.63733 -7.8884,8.00043 -9.08286,11.11313 -0.84568,2.20379 3.7328,8.46529 6.19592,8.4735 4.07894,0.0136 5.78783,-4.6249 3.36898,-9.14456 -0.59456,-1.11095 -0.86338,-2.23754 -0.59738,-2.50354 0.76318,-0.76318 4.65202,1.99015 5.15878,3.65245 0.63046,2.0681 -2.91326,17.83536 -4.32605,19.24815 -0.63021,0.63021 -3.00543,1.03612 -5.27825,0.90202 -3.05328,-0.18016 -5.15378,0.43208 -8.04366,2.34451 l -3.91125,2.58835 2.16386,3.03886 c 2.88266,4.04832 4.53137,4.52526 8.27644,2.39418 6.61916,-3.76654 11.61612,-9.70121 13.6136,-16.1683 3.00769,-9.73775 3.53399,-17.29657 1.60807,-23.09499 C 264.3363,119.48569 258.70193,113 255.07212,113 c -5.30008,0 -14.79799,8.85208 -22.48153,20.95284 -3.16524,4.98493 -4.1453,5.90853 -5.14864,4.85204 -0.68158,-0.71769 -4.72254,-6.44399 -8.97992,-12.72514 -7.26454,-10.71777 -7.67633,-11.60969 -6.69462,-14.5 0.57533,-1.69385 1.80569,-6.62101 2.73412,-10.94923 2.04381,-9.527969 2.1605,-9.357594 -9.28923,-13.563575 -21.63219,-7.946438 -52.28405,-10.522501 -95.85137,-8.0556 C 77.02227,80.842438 49.962555,83.95626 47.318408,86.150708 46.431045,86.887154 46,89.82453 46,95.135055 l 0,7.890165 5.75,2.53831 c 14.002911,6.18152 24.304435,15.55617 31.776464,28.91741 3.801256,6.79728 6.318846,17.07375 4.603149,18.78945 -1.388516,1.38851 -6.882664,-0.95058 -8.629151,-3.6738 -0.739536,-1.15312 -1.644609,-4.15964 -2.011271,-6.68115 -0.366663,-2.5215 -0.964229,-5.04817 -1.327925,-5.61482 -1.168626,-1.82074 -12.063303,-7.4792 -13.130446,-6.81967 -2.641445,1.63251 0.06406,14.89304 5.586156,27.37947 1.32491,2.99586 2.23167,5.62427 2.015023,5.84091 -0.463559,0.46356 -2.646199,-1.63263 -5.569178,-5.3486 -1.149957,-1.46193 -2.2795,-2.46938 -2.510097,-2.23879 -0.71366,0.71366 3.273624,27.08955 4.92307,32.56611 1.312057,4.35635 2.869147,6.40062 9.792174,12.85594 9.03941,8.42872 20.171575,16.63521 31.732032,23.39245 4.125,2.41111 9.075,5.41343 11,6.67181 4.49968,2.94147 7.87752,4.26515 16.5,6.46589 6.91815,1.76574 6.16109,1.78749 -64.75,1.86024 L 0,240 z M 83,148.5 c 0,-0.825 -0.435877,-1.5 -0.968615,-1.5 -0.532739,0 -0.709594,0.675 -0.393011,1.5 0.316582,0.825 0.752459,1.5 0.968615,1.5 C 82.823145,150 83,149.325 83,148.5 z m -26,-15 C 57,129.36667 56.796296,129 54.5,129 53.125,129 52,129.24293 52,129.53984 52,130.47869 56.018691,138 56.520324,138 56.784146,138 57,135.975 57,133.5 z m 17.639912,-5.90545 c -5.18442,-6.79713 -14.596196,-13.12087 -22.946259,-15.41753 -4.599508,-1.26508 -5.465921,-0.047 -3.723032,5.23396 1.241421,3.76154 1.609383,3.95871 10.254485,5.49471 6.174062,1.09697 9.345066,2.50034 14.703284,6.50716 4.392703,3.28481 5.061728,2.57404 1.711522,-1.8183 z m 155.731058,0.35459 1.80219,-3.05086 -3.58658,-6.02081 c -5.51564,-9.25914 -4.45159,-10.55953 3.01146,-3.68033 3.66028,3.37392 4.88175,3.99133 6.22766,3.14787 3.54041,-2.21873 2.30833,-4.69565 -5.35301,-10.76148 C 228.36271,104.32947 225,101.25067 225,100.74176 c 0,-0.50892 2.94049,0.691 6.53442,2.66647 3.59394,1.97547 6.81368,3.59177 7.15499,3.59177 1.29287,0 -3.41573,-4.45319 -9.13949,-8.643749 -6.70247,-4.907098 -9.0915,-5.535261 -8.2084,-2.158287 0.31613,1.20888 0.2066,2.67138 -0.24339,3.25 C 219.96229,100.90849 216,113.02461 216,115.03734 216,117.26762 225.73016,131 227.31044,131 c 0.69209,0 2.06933,-1.37289 3.06053,-3.05086 z M 272.8,119.8 c 0.66,-0.66 1.2,-2.63206 1.2,-4.38235 0,-8.56828 -20.74517,-21.617309 -57.8048,-36.3601 C 188.94312,68.216329 185.86522,67.633977 146.5,65.870943 c -23.70924,-1.061856 -29.55948,-1.003372 -48,0.479854 -11.55,0.929001 -26.978581,2.728878 -34.285735,3.999727 -12.68974,2.20698 -13.416889,2.46403 -16.20936,5.730055 -1.607993,1.880682 -2.941912,3.756921 -2.964264,4.169421 -0.05431,1.002281 2.595928,0.909967 7.459359,-0.259827 6.80479,-1.636746 28.116506,-3.849566 48,-4.983895 10.45,-0.596159 19.79294,-1.250748 20.76208,-1.454642 3.75349,-0.789678 52.78439,1.53764 62.73792,2.977939 5.775,0.835657 14.11177,2.617103 18.52616,3.958771 9.81092,2.981836 35.4635,16.611673 43.10553,22.903014 4.50764,3.71094 6.34806,4.60864 9.44839,4.60864 4.48133,0 9.36671,3.70068 12.45444,9.43423 2.02643,3.76287 3.29736,4.33389 5.26548,2.36577 z M 98.05672,54.431656 c 0.936443,-1.128345 1.526113,-1.192837 2.61834,-0.286369 2.09669,1.7401 3.28869,-0.04362 3.99081,-5.971862 L 105.27858,43 99.361797,43 c -3.784733,0 -6.733121,0.571784 -8.182249,1.586793 -1.628734,1.14081 -2.623381,1.289748 -3.538921,0.529917 C 86.757692,44.383939 85.2297,44.373905 82.657986,45.083989 78.894907,46.123025 78.509364,48 82.059017,48 83.126558,48 84,48.415474 84,48.923275 c 0,0.507801 1.083137,2.21051 2.406971,3.783797 1.844592,2.192173 3.345543,2.89795 6.424042,3.020712 2.4662,0.09835 4.483689,-0.40205 5.225707,-1.296128 z m 26.26739,-1.83389 c 0.29595,-0.771229 0.28493,-1.655397 -0.0245,-1.964817 C 123.53113,49.864459 120,51.83733 120,53.035184 c 0,1.507625 3.72222,1.131093 4.32411,-0.437418 z m 18.21441,-1.136968 c 10.64238,-3.08404 22.27604,-8.3782 24.88049,-11.322427 2.68984,-3.040749 3.38648,-12.260099 1.18078,-15.626422 -2.68141,-4.092349 -3.13519,-3.930925 -20.55947,7.313751 -4.65282,3.002677 -10.55907,6.331882 -13.125,7.398234 l -4.66532,1.938821 0,6.418623 c 0,7.632219 -0.31665,7.532255 12.28852,3.87942 z m -21.22305,-3.902305 c 4.21983,-1.813853 4.77784,-4.827657 0.99406,-5.368904 C 120.2242,41.891294 112,48.159011 112,50.046557 c 0,0.919421 3.66623,-0.05979 9.31547,-2.488064 z m -8.85351,-1.659236 C 116.432,42.413515 116.2755,41 111.91954,41 c -3.22285,0 -5.71109,3.494879 -4.58238,6.43623 0.80894,2.108064 1.05862,2.033183 5.1248,-1.536973 z M 107.75,213.35162 c -5.88461,-4.59819 -6.61389,-5.69967 -4.59843,-6.94529 1.25246,-0.77407 13.72551,-0.60033 15.03574,0.20943 0.44295,0.27376 0.13201,1.79986 -0.69098,3.39133 -0.82298,1.59147 -1.49633,4.04094 -1.49633,5.44325 0,3.51877 -1.57304,3.1186 -8.25,-2.09872 z M 93.5,196.26571 c 1.823554,-1.80576 14.86104,-4.44146 24.5,-4.953 9.79861,-0.52002 16.91067,0.85671 17.75681,3.43729 0.31005,0.94561 -2.10645,1.25111 -9.92348,1.25455 -5.68333,0.002 -15.50833,0.28509 -21.83333,0.62797 -7.593685,0.41167 -11.16032,0.28707 -10.5,-0.36681 z M 78.150038,184.99373 C 75.867517,183.34028 74,181.56145 74,181.04078 c 0,-3.20677 2.957658,-6.49541 8.239684,-9.16177 6.641169,-3.35245 8.689248,-3.028 5.941145,0.9412 -3.389022,4.89489 -3.35203,5.98453 0.341975,10.07335 C 90.435262,185.01042 92,187.02536 92,187.3712 92,187.71704 89.817517,188 87.150038,188 c -3.804121,0 -5.74487,-0.64827 -9,-3.00627 z M 122.00838,171.4899 c 1.28705,-1.5508 8.4063,-3.8776 15.49162,-5.06317 6.16879,-1.03221 3.16736,0.94216 -6.00341,3.94909 -9.45373,3.09972 -11.31779,3.31859 -9.48821,1.11408 z M 151,168.40675 c 0,-0.75926 8.2786,-4.36407 10,-4.35438 1.18683,0.007 1.14001,0.21824 -0.22422,1.0133 C 158.29775,166.50983 151,169.00399 151,168.40675 z m -16.80037,-6.40769 c 0.93479,-0.57313 13.08479,-3.30492 27,-6.07064 15.06968,-2.99518 25.90692,-5.63036 26.80037,-6.51677 1.04488,-1.03666 1.48945,-3.52462 1.46524,-8.19992 -0.0582,-11.22834 -4.58392,-16.82264 -8.21923,-10.1598 C 177.32398,138.24029 175.1548,140 170.21583,140 c -3.62677,0 -5.19783,-0.56663 -7.38745,-2.66442 -2.734,-2.61935 -2.87876,-2.64286 -8.55472,-1.38982 -9.00459,1.98788 -29.50128,8.89448 -32.27366,10.87499 -3.50028,2.50051 -18.18837,9.32421 -18.78539,8.7272 -0.84679,-0.8468 14.04092,-13.63589 25.28539,-21.72107 7.34844,-5.28379 19.29457,-11.66493 36.99518,-19.76131 19.31815,-8.83626 29.38055,-12.62789 30.39763,-11.45418 0.42352,0.48873 1.31396,2.80111 1.97875,5.13861 1.49449,5.25479 3.09541,5.50282 3.22731,0.5 l 0.0989,-3.75 1.35936,4.32501 c 0.74765,2.37875 1.49066,7.55375 1.65113,11.5 0.24385,5.99654 0.0454,7.1014 -1.20823,6.72695 -2.3202,-0.69302 -9.28388,-0.16808 -10.22256,0.7706 -0.46196,0.46196 -0.15087,3.48542 0.69131,6.71879 0.84219,3.23336 1.53125,7.3593 1.53125,9.16875 0,3.51714 0.34077,3.69945 6.25,3.34369 2.0625,-0.12417 3.75,0.21407 3.75,0.75164 0,2.48997 -18.52481,7.32925 -37,9.66558 -6.875,0.8694 -15.875,2.21172 -20,2.98292 -12.77162,2.38778 -15.71166,2.71695 -13.80037,1.54513 z M 151.5,131.97161 c 9.9,-3.31501 23.85,-7.44488 31,-9.17748 7.15,-1.7326 13.37215,-3.46472 13.82699,-3.84915 1.03206,-0.87228 -1.20875,-8.60196 -2.90076,-10.0062 -2.6492,-2.19864 -37.30917,12.78336 -53.29154,23.03562 -12.224,7.84137 -12.06047,7.84133 11.36531,-0.003 z m 21.57971,1.43235 c 1.15647,-1.39347 1.0233,-1.55212 -1.04923,-1.25 -1.3056,0.19032 -2.55907,0.90854 -2.78549,1.59604 -0.59252,1.79918 2.26862,1.54099 3.83472,-0.34604 z m 33.53072,27.15598 c 1.71074,-0.79848 4.41074,-1.75698 6,-2.13001 2.69336,-0.63218 2.78008,-0.56274 1.27715,1.02262 -0.88683,0.93547 -3.58683,1.89398 -6,2.13001 L 203.5,162.01172 z m -16.83988,-0.93696 c -1.53176,-1.16328 -1.13169,-1.45627 3.5,-2.56323 2.8762,-0.6874 6.57945,-1.07002 8.22945,-0.85025 2.96027,0.39428 2.936,0.42864 -1.83291,2.59503 -5.52598,2.51032 -7.45833,2.67013 -9.89654,0.81845 z m -68.68191,-50.63142 c 5.85287,-6.7292 11.06536,-11.23073 18.36462,-15.859782 9.21022,-5.840946 7.7012,-2.321212 -2.13682,4.984063 -2.85095,2.116989 -8.47595,6.778459 -12.5,10.358819 -4.02404,3.58035 -7.68484,6.51324 -8.13511,6.51754 -0.45027,0.004 1.53302,-2.696 4.40731,-6.00064 z m -42.69552,-2.0993 C 66.295241,97.927827 62.611266,93.557256 69.622124,96.48658 c 5.160195,2.156067 5.790505,1.901645 3.44597,-1.39095 C 71.930642,93.498226 71,91.839035 71,91.408538 c 0,-1.585449 6.371286,5.292418 11.114572,11.998292 7.375019,10.42652 6.611233,11.14186 -3.721452,3.48543 z M 143.55,97.066408 C 145.06522,95.577358 156.28809,89 157.31362,89 c 1.80744,0 -1.77669,3.224164 -6.76448,6.085107 -4.87123,2.79408 -9.02178,3.969009 -6.99914,1.981301 z M 217.52382,43.75 C 210.09075,26.49053 204.6768,16.0953 199.6146,9.3627609 197.07657,5.9872795 195,2.9497795 195,2.6127609 195,1.1250854 202.53798,2.3167366 215.56493,5.8637962 235.16688,11.201136 236.41359,12.268588 222.25,11.587673 216.0625,11.290208 211,11.19905 211,11.385099 c 0,0.186048 1.40936,3.438012 3.1319,7.226586 C 221.18926,34.133652 226.38029,55 223.18441,55 c -0.44858,0 -2.99584,-5.0625 -5.66059,-11.25 z"
         id="path2991"
         inkscape:connector-curvature="0"
         sodipodi:nodetypes="cczssssssssssscccssssssssssssssssssssccccssssscssssssssscccccccssssssssssssssscsssssssssssssscsssssssscscssssssccssssssssssssssssscssssssssssssssssssssssssssssssssscsssssssssscssssssscssssssssssssssssssscssssssssssssssscsscsssssssscssssscsssssssssscccssssccsssssssscsssssssssscssssssssssssssssssss" />
      <path
         style="fill:#080604"
         d="M -12.928732,115.65367 C -9.0379917,120.77742 15.489122,103.67415 35.5,83.562644 52.756389,66.219481 58.885402,60.702525 63.925241,57.976008 77.308498,50.735765 69.137508,50.003024 54.26265,57.109508 45.640288,61.228852 39.986272,66.149189 25.660693,82 18.212505,90.24119 17.904393,89.712417 24.847286,80.604055 35.41732,66.737256 47.954214,55.841864 58.32728,51.50772 62.799156,49.639251 63.58015,48.380854 61.09375,47.050173 56.214739,44.439006 52.077435,45.72435 40.582919,53.422311 31.109684,59.766606 17.459868,70.265329 8.8572558,78.470059 -2.0566529,90.482114 -6.5491529,96.944824 -11.532503,105.65997 c -1.280434,2.23929 -3.205131,7.23059 -3.221415,8.72613 M -38.492909,2.1063682 76.86318,2.1286222 C 76.863179,2.634699 69.375,12.328264 62.5,21.480244 51.506056,36.11535 48.163568,41.957484 50.75,42.017364 c 0.4125,0.0095 3.85091,0.674314 7.64091,1.477253 6.520873,1.381495 7.541163,1.329652 19,-0.965428 15.902515,-3.185099 30.42742,-4.693114 42.94741,-4.458918 7.32724,0.137062 11.38222,-0.264629 14.53741,-1.440094 5.37293,-2.001687 5.68597,-2.011907 4.12809,-0.134777 -0.68259,0.82247 -2.98769,2.018699 -5.12245,2.658288 -2.13475,0.639588 -3.91307,1.429158 -3.95181,1.7546 -0.69252,5.816994 -0.31691,13.389576 0.68316,13.773339 1.71387,0.657676 12.07492,-2.309144 24.09791,-6.900283 14.36271,-5.484591 18.35098,-10.990347 15.14452,-20.906838 -2.17477,-6.725808 -3.43409,-6.869217 -12.81349,-1.45918 -4.52043,2.607383 -8.42559,4.534075 -8.67813,4.281537 -0.84274,-0.842735 8.07775,-7.916641 12.51311,-9.922846 5.71792,-2.58633 8.23112,-1.468272 11.58733,5.154885 3.44715,6.802613 3.41768,12.869865 -0.0827,17.029838 -3.61883,4.300741 -18.93135,11.421315 -30.01137,13.955785 -8.69712,1.989402 -50.432694,5.039359 -69.86989,5.105961 -5.328676,0.01826 -7.593334,0.479868 -9.48506,1.933357 -1.366782,1.050154 -2.15746,2.236971 -1.75706,2.63737 0.400399,0.400399 8.718676,-0.0237 18.485059,-0.942444 26.962981,-2.536461 45.463251,-2.996267 70.757061,-1.758597 23.37511,1.143786 29.57792,2.034563 46.5,6.677806 30.9793,8.500398 46.0029,14.841558 61.5,25.957915 4.95,3.550727 9.5625,6.459967 10.25,6.464987 1.96909,0.0144 1.54391,-3.244354 -3.13404,-24.020275 -6.15854,-27.351573 -13.1614,-52.364777 -16.24824,-58.036308 -1.87837,-3.451191 -4.7152,-6.315326 -9.99524,-10.0914622 C 235.31762,6.94291 232,4.2169393 232,3.7851222 l 46.41821,-1.392111 C 279.85155,1.8429897 280,8.5252716 280,73.593011 c 0,55.849879 -0.26667,71.540319 -1.2,70.606989 -2.2517,-2.2517 -3.59978,-1.20308 -4.78046,3.71855 -0.64897,2.70521 -1.80454,5.74271 -2.56794,6.75 -2.88039,3.80065 -1.12946,7.0853 5.7984,10.8775 2.29032,1.25369 2.75,2.1735 2.75,5.50268 l 0,3.99738 -2.75,-1.69967 c -1.5125,-0.93482 -4.88988,-3.44898 -7.50528,-5.58703 l -4.75529,-3.88737 -8.69362,4.16897 c -7.06128,3.38619 -9.42453,4.07093 -12.58639,3.64684 l -3.89277,-0.52213 -2.40832,5.44565 C 236.08375,179.60648 235,182.67854 235,183.43816 c 0,2.43276 13.03042,4.08889 29.75,3.78115 L 280,186.93862 280,213.46931 280,240 152,238.88039 c 13.82229,-5.48622 40.13615,-21.37766 54.1576,-32.70681 14.50516,-11.71999 27.5603,-27.46363 31.42828,-37.90045 0.97294,-2.62522 1.9262,-4.9727 2.11837,-5.21662 0.19217,-0.24392 1.66196,0.99358 3.2662,2.75 1.60425,1.75642 3.52907,3.19349 4.2774,3.19349 1.85604,0 10.61451,-5.64014 12.92259,-8.32167 5.06006,-5.87882 9.50536,-20.99032 8.58268,-29.17629 C 267.77389,122.81432 260.3314,112 255.33168,112 c -5.78267,0 -13.91699,6.68018 -21.51143,17.66592 -2.78852,4.03374 -5.44801,7.33408 -5.90996,7.33408 -0.46196,0 -1.35811,-0.96823 -1.99144,-2.15163 -0.97881,-1.82893 -0.91085,-2.05928 0.45314,-1.53587 1.10997,0.42594 2.37896,-0.52373 4.11633,-3.0805 3.06175,-4.50576 3.119,-6.08835 0.38771,-10.71754 -2.68252,-4.54653 -1.80451,-5.68931 1.22397,-1.59307 2.71852,3.67699 4.79616,3.8825 7.72569,0.76416 2.62429,-2.79343 2.72985,-4.41421 0.45146,-6.93179 -1.66056,-1.8349 -1.62441,-1.87902 1,-1.22033 C 243.01429,110.96942 244,110.81556 244,110.10841 244,107.28278 225.11471,92 221.62301,92 c -1.71726,0 -1.762,0.08558 -2.09107,4 -0.39983,4.75598 -5.7843,20.14764 -6.72069,19.21125 -0.55199,-0.55199 -0.30566,-2.45812 0.62194,-4.81262 0.84476,-2.14425 2.15943,-6.91945 2.92149,-10.611554 1.78679,-8.656878 1.07822,-9.703479 -9.27177,-13.694856 -14.27072,-5.503372 -28.92968,-7.950566 -57.58291,-9.612999 -22.56235,-1.309045 -97.757281,4.471584 -103.381383,7.94747 -1.060109,0.655183 -2.278867,15.384946 -1.509724,18.246329 0.397561,1.47902 2.382845,2.90308 6.21619,4.45892 7.791385,3.16229 19.275756,11.03966 24.123098,16.54653 6.175641,7.0159 4.839857,6.66822 -2.698181,-0.70229 -7.387868,-7.22367 -15.970432,-11.9608 -23.13862,-12.77131 l -4.38862,-0.49622 0.718512,3.89567 c 1.466452,7.95091 2.305917,8.7445 11.067716,10.46298 9.617106,1.88623 10.790898,2.48317 18.621251,9.47007 C 78.497387,136.54181 82.051532,139 83.028338,139 85.181174,139 87,143.68601 87,149.23256 c 0,2.71373 -0.387756,3.79852 -1.25,3.49703 -0.6875,-0.24039 -1.10765,-1.22198 -0.933667,-2.1813 0.38969,-2.1487 -2.739358,-5.79181 -4.420478,-5.1467 C 78.917201,145.969 78,143.87864 78,139.94127 c 0,-3.09123 -0.807332,-3.80187 -9.434468,-8.30456 -9.370847,-4.89085 -9.874841,0.8892 -2.080771,23.86329 0.678509,2 0.678509,2 -1.002432,0 -3.371522,-4.01147 -5.671331,-11.03477 -6.221631,-19 -0.303986,-4.4 -1.049501,-8.33061 -1.6567,-8.73469 -1.825798,-1.21503 -6.631391,-0.8575 -7.165,0.53306 -0.274028,0.71411 1.306708,5.15002 3.512746,9.85758 4.618733,9.85612 6.161391,15.91855 8.981897,35.29762 2.762716,18.98201 4.448476,22.2555 16.815915,32.65399 10.756862,9.04432 19.336484,14.99083 33.250444,23.04581 11.31819,6.55224 14.20791,7.76635 22.3276,9.38089 L 141.5,239.7616 128.571,239.8808 -39.501411,240 z M 273.4433,119.77749 c 2.60583,-3.72035 1.86818,-6.53017 -3.11211,-11.8545 C 261.94812,98.960807 244.54348,89.652544 211.8361,76.638945 191.29821,68.467338 186.39074,67.416329 162.5,66.072865 123.69069,63.890474 93.244923,64.977236 66,69.517433 l -14.5,2.416335 -3.865211,4.117905 c -5.179383,5.517994 -3.965763,6.63359 5.017572,4.612301 8.687688,-1.954768 21.009587,-3.248778 49.613169,-5.210232 18.81163,-1.289983 27.4956,-1.378778 50,-0.511257 27.39902,1.056203 39.73117,2.630567 52.16624,6.659713 8.28157,2.683351 32.98261,16.099576 40.56606,22.033222 5.99966,4.6944 7.47836,5.4189 9.9514,4.87573 2.39693,-0.52645 3.58431,-0.0239 6.79307,2.875 2.13863,1.93212 4.74884,5.11066 5.80047,7.0634 2.2111,4.10578 3.71741,4.44478 5.90053,1.32794 z M 100.29002,56.351657 c 2.65454,-0.438684 4.18331,-1.376949 5.10275,-3.131761 0.84517,-1.613066 1.56428,-2.098408 2.019,-1.362663 C 107.80021,52.485755 108.94004,53 109.94471,53 c 1.00467,0 3.11561,0.672228 4.69098,1.493839 3.73561,1.948253 8.77886,1.916515 10.42387,-0.0656 2.04085,-2.459075 2.22336,-10.948547 0.27022,-12.569505 -2.19739,-1.823675 -9.4853,-2.073142 -23.82978,-0.8157 C 79.712678,42.952919 73.283094,44.983597 78.174834,48.409905 79.423432,49.284457 80.983183,50 81.640947,50 82.298711,50 83.810285,51.575 85,53.5 c 1.974622,3.195006 2.569932,3.499041 6.831559,3.488994 2.567643,-0.0061 6.37395,-0.292854 8.458461,-0.637337 z m 9.00074,156.340823 C 103.34775,208.18502 103.72584,207 111.10699,207 c 5.40742,0 6.02943,0.20046 5.42997,1.75 -0.37236,0.9625 -0.92676,2.9875 -1.23199,4.5 -0.30523,1.5125 -0.83622,2.72412 -1.17997,2.69248 -0.34375,-0.0316 -2.51916,-1.49413 -4.83424,-3.25 z m -6.69726,-17.54119 c -1.55808,-2.52103 27.07905,-3.87874 29.5565,-1.40129 1,1 -1.34,1.25273 -11.7,1.26365 -7.1225,0.008 -13.91171,0.27172 -15.08714,0.58712 -1.17543,0.31541 -2.42164,0.11314 -2.76936,-0.44948 z M 80.699507,184.90601 c -2.09027,-1.10308 -4.039068,-2.62732 -4.330661,-3.3872 C 75.287941,178.70202 82.490236,172 86.598197,172 c 0.164862,0 -0.347817,1.54985 -1.139288,3.4441 -1.614649,3.8644 -1.121153,6.13111 1.65874,7.61886 2.633169,1.40923 2.393489,3.94708 -0.367649,3.89284 -1.2375,-0.0243 -3.960222,-0.94671 -6.050493,-2.04979 z M 245.33962,154.54242 c 1.01179,-0.76668 2.25951,-3.26276 2.77271,-5.54685 0.83451,-3.71413 0.66657,-4.46962 -1.58962,-7.15095 -3.67562,-4.36823 -3.2347,-7.65744 1.97522,-14.73461 C 252.52479,121.63992 256,119.27279 256,122 c 0,0.55 -0.34343,1 -0.76317,1 -1.16195,0 -9.23897,10.66376 -9.22154,12.17481 0.008,0.72885 1.5495,3.57519 3.42464,6.32519 3.38498,4.96426 3.39552,5.01483 1.47556,7.07419 -1.06358,1.1408 -1.62967,2.3783 -1.25797,2.75 1.2346,1.23459 6.07879,0.69847 7.33191,-0.81146 1.58112,-1.90512 0.59919,-4.50821 -1.70805,-4.52804 C 253.76549,145.97166 253.72355,145.8249 255,145 c 0.825,-0.53316 2.30789,-0.97627 3.29531,-0.98469 1.52944,-0.013 1.69525,0.54005 1.11961,3.73469 -0.96357,5.34763 -2.04329,6.25 -7.47835,6.25 -2.65019,0 -5.09665,0.45 -5.43657,1 -0.33992,0.55 -1.15398,0.98569 -1.80902,0.9682 -0.65504,-0.0175 -0.36315,-0.65909 0.64864,-1.42578 z M 179.75,153.33772 c 0.6875,-0.27741 1.8125,-0.27741 2.5,0 0.6875,0.27741 0.125,0.50439 -1.25,0.50439 -1.375,0 -1.9375,-0.22698 -1.25,-0.50439 z m 5.25,-1.04716 c 5.02244,-1.84671 6.72335,-7.37085 5.01357,-16.28285 -1.88272,-9.81345 -6.46513,-11.58108 -10.15545,-3.9174 -3.81879,7.93048 -11.12773,9.89975 -16.75021,4.51308 l -2.97597,-2.85116 -7.31597,1.78577 c -4.02378,0.98217 -10.67312,2.81827 -14.77631,4.08021 -4.10319,1.26194 -7.61244,2.14235 -7.79832,1.95646 -1.31256,-1.31256 48.32897,-17.11722 61.20059,-19.48479 5.59345,-1.02884 7.50696,-2.20268 7.54276,-4.62708 0.008,-0.57045 0.86163,-1.10094 1.89601,-1.17886 1.42263,-0.10716 2.0224,0.73153 2.46248,3.4434 0.31998,1.97179 0.38685,3.90046 0.14862,4.28593 -0.23824,0.38548 -2.98546,0.96429 -6.10493,1.28625 -7.53829,0.77802 -8.18642,1.57203 -6.08012,7.44867 0.93673,2.6135 1.70092,7.08775 1.6982,9.94279 -0.003,2.85504 0.44505,5.4691 0.99505,5.80902 2.09782,1.29652 0.82318,2.37219 -4.04922,3.41714 -5.30979,1.13874 -7.4767,1.30219 -4.95078,0.37342 z M 173.42857,134.42857 C 175.58221,132.27493 175.3984,131 172.93426,131 c -3.17092,0 -5.93431,1.83629 -5.29003,3.51525 0.74563,1.94309 3.80035,1.89731 5.78434,-0.0867 z M 115.5,145.39605 c 3.3,-3.0757 10.3974,-8.52605 15.77199,-12.11189 9.40569,-6.27531 40.1639,-21.40517 55.72801,-27.41243 6.9667,-2.68893 7.58888,-2.77369 8.75,-1.19212 0.6875,0.93646 1.25614,2.40414 1.26365,3.26152 0.008,0.85738 0.25112,2.68387 0.54135,4.05887 0.31423,1.48871 -0.13907,0.98306 -1.12061,-1.25 -2.10522,-4.78954 -3.5591,-4.80037 -16.16092,-0.12041 -18.52403,6.87931 -48.09774,22.75024 -54.70568,29.35817 L 123.55556,142 l 2.97222,0.0652 c 2.49563,0.0547 1.76961,0.63006 -4.52778,3.58802 -12.54387,5.89201 -13.07505,5.87099 -6.5,-0.25716 z M 78.962226,105.04064 c -2.571682,-2.19816 -3.012096,-2.96981 -1.712226,-3 1.871789,-0.0435 5.75,3.30148 5.75,4.95936 0,1.42276 -0.187267,1.33189 -4.037774,-1.95936 z M 217.31747,39.25 c -8.98921,-19.611127 -11.32704,-24.109769 -15.18648,-29.223088 -6.2652,-8.3006711 -6.53667,-8.1920048 9.21847,-3.6900232 10.66106,3.0463608 12.1428,4.1027132 4.41278,3.1459214 -7.48491,-0.9264537 -7.92753,0.2496327 -3.44765,9.1607838 1.89579,3.771023 4.20398,9.093342 5.12931,11.827374 C 219.54678,36.684286 221.98222,47 221.34624,47 c -0.26201,0 -2.07495,-3.4875 -4.02877,-7.75 z"
         id="path2989"
         inkscape:connector-curvature="0"
         sodipodi:nodetypes="csssssssscscccscsssssscsssssssssssssssscsssccsssssscsscsscsssccccsssssssssssssssssssssssssssssssscssssssssssssssssssssccccssssscsssssssssssscsssssssscssssscssscssssssssssssssscsssssscssscssssssssscsscscssssscssscsscccssscssssccsccscssssssssss" />
    </g>
    <rect
       style="color:#000000;fill:#000000;fill-opacity:0.78431373;fill-rule:nonzero;stroke:#000000;stroke-width:1;stroke-linecap:round;stroke-linejoin:miter;stroke-miterlimit:4;stroke-opacity:1;stroke-dasharray:none;stroke-dashoffset:0;marker:none;visibility:visible;display:inline;overflow:visible;enable-background:accumulate"
       id="rect3929"
       width="1124"
       height="734"
       x="-156"
       y="-61.999996" />
  </g>
</svg>
